<svg width="21" height="20" viewBox="0 0 21 20" fill="none" xmlns="http://www.w3.org/2000/svg">
<path fill-rule="evenodd" clip-rule="evenodd" d="M0.25 2.85672C0.25 1.67325 1.20939 0.713867 2.39286 0.713867H18.1071C19.2906 0.713867 20.25 1.67325 20.25 2.85672V4.99958C20.25 6.18305 19.2906 7.14244 18.1071 7.14244H2.39286C1.20939 7.14244 0.25 6.18305 0.25 4.99958V2.85672ZM18.8214 8.92815H1.67857V17.1424C1.67857 18.3259 2.63796 19.2853 3.82143 19.2853H16.6786C17.862 19.2853 18.8214 18.3259 18.8214 17.1424V8.92815ZM8.10714 11.2496C7.61403 11.2496 7.21429 11.6493 7.21429 12.1424C7.21429 12.6356 7.61403 13.0353 8.10714 13.0353H12.3929C12.886 13.0353 13.2857 12.6356 13.2857 12.1424C13.2857 11.6493 12.886 11.2496 12.3929 11.2496H8.10714Z" fill="#CFCED3"/>
</svg>
