<svg width="21" height="21" viewBox="0 0 21 21" fill="none" xmlns="http://www.w3.org/2000/svg">
<g clip-path="url(#clip0_696_2531)">
<path fill-rule="evenodd" clip-rule="evenodd" d="M0.75 3.35721C0.75 2.17374 1.70939 1.21436 2.89286 1.21436H18.6071C19.7906 1.21436 20.75 2.17374 20.75 3.35721V5.50007C20.75 6.68354 19.7906 7.64293 18.6071 7.64293H2.89286C1.70939 7.64293 0.75 6.68354 0.75 5.50007V3.35721ZM19.3214 9.42864H2.17857V17.6429C2.17857 18.8264 3.13796 19.7858 4.32143 19.7858H17.1786C18.362 19.7858 19.3214 18.8264 19.3214 17.6429V9.42864ZM8.60714 11.7501C8.11403 11.7501 7.71429 12.1498 7.71429 12.6429C7.71429 13.136 8.11403 13.5358 8.60714 13.5358H12.8929C13.386 13.5358 13.7857 13.136 13.7857 12.6429C13.7857 12.1498 13.386 11.7501 12.8929 11.7501H8.60714Z" fill="#3D3D3D"/>
</g>
<defs>
<clipPath id="clip0_696_2531">
<rect width="20" height="20" fill="white" transform="translate(0.75 0.5)"/>
</clipPath>
</defs>
</svg>
