<svg width="100" height="100" viewBox="0 0 21 18" fill="none" xmlns="http://www.w3.org/2000/svg">
<path fill-rule="evenodd" clip-rule="evenodd" d="M6.46938 1.39535C4.00213 1.39535 1.99496 3.40531 1.99496 5.89767C1.99496 8.92141 3.39094 11.3441 5.14773 13.1441C6.91294 14.9527 8.99956 16.0855 10.2483 16.5118L10.2551 16.5142L10.2551 16.5142C10.3153 16.5355 10.4402 16.5581 10.5996 16.5581C10.759 16.5581 10.8839 16.5355 10.9442 16.5142L10.9509 16.5118L10.951 16.5118C12.1997 16.0855 14.2863 14.9527 16.0515 13.1441C17.8083 11.3441 19.2043 8.92141 19.2043 5.89767C19.2043 3.40531 17.1971 1.39535 14.7298 1.39535C13.2766 1.39535 11.9736 2.1015 11.1597 3.19736C11.0281 3.37459 10.8204 3.47907 10.5996 3.47907C10.3789 3.47907 10.1711 3.37459 10.0395 3.19736C9.22524 2.10093 7.93121 1.39535 6.46938 1.39535ZM0.599609 5.89767C0.599609 2.6412 3.22499 0 6.46938 0C8.08495 0 9.54339 0.656732 10.5999 1.71601C11.6586 0.656408 13.1226 0 14.7298 0C17.9742 0 20.5996 2.6412 20.5996 5.89767C20.5996 9.38557 18.9816 12.1396 17.0501 14.1187C15.1283 16.0877 12.854 17.3359 11.4049 17.8313C11.1497 17.9207 10.8575 17.9535 10.5996 17.9535C10.3417 17.9535 10.0495 17.9207 9.79435 17.8313C8.34523 17.3359 6.07095 16.0877 4.14916 14.1187C2.21758 12.1396 0.599609 9.38557 0.599609 5.89767Z" fill="white"/>
</svg>
