<svg width="18" height="20" viewBox="0 0 14 15" fill="none" xmlns="http://www.w3.org/2000/svg">
<path d="M1.66667 10.3303V12.6636C1.66667 13.0173 1.80714 13.3564 2.05719 13.6065C2.30724 13.8565 2.64638 13.997 3 13.997H11C11.3536 13.997 11.6928 13.8565 11.9428 13.6065C12.1929 13.3564 12.3333 13.0173 12.3333 12.6636V10.3303M1 8.66365V7.99698C1 7.64336 1.14048 7.30422 1.39052 7.05417C1.64057 6.80413 1.97971 6.66365 2.33333 6.66365H11.6667C12.0203 6.66365 12.3594 6.80413 12.6095 7.05417C12.8595 7.30422 13 7.64336 13 7.99698V8.66365M7 4.66365V6.66365M7 4.66365C7.84133 4.66365 8.33333 4.01832 8.33333 2.91365C8.33333 1.80898 7 0.663651 7 0.663651C7 0.663651 5.66667 1.80898 5.66667 2.91365C5.66667 4.01832 6.15867 4.66365 7 4.66365Z" stroke="#3D3D3D" stroke-linecap="round" stroke-linejoin="round"/>
<path d="M1 8.66365C1 9.19408 1.21071 9.70279 1.58579 10.0779C1.96086 10.4529 2.46957 10.6637 3 10.6637C3.53043 10.6637 4.03914 10.4529 4.41421 10.0779C4.78929 9.70279 5 9.19408 5 8.66365C5 9.19408 5.21071 9.70279 5.58579 10.0779C5.96086 10.4529 6.46957 10.6637 7 10.6637C7.53043 10.6637 8.03914 10.4529 8.41421 10.0779C8.78929 9.70279 9 9.19408 9 8.66365C9 9.19408 9.21071 9.70279 9.58579 10.0779C9.96086 10.4529 10.4696 10.6637 11 10.6637C11.5304 10.6637 12.0391 10.4529 12.4142 10.0779C12.7893 9.70279 13 9.19408 13 8.66365" stroke="#3D3D3D" stroke-linecap="round" stroke-linejoin="round"/>
</svg>
