<svg width="100" height="100" viewBox="0 0 23 22" fill="none" xmlns="http://www.w3.org/2000/svg">
<path d="M3.39941 14.5001C2.86898 14.5001 2.36027 14.2894 1.9852 13.9143C1.61013 13.5393 1.39941 13.0306 1.39941 12.5001C1.39941 11.9697 1.61013 11.461 1.9852 11.0859C2.36027 10.7108 2.86898 10.5001 3.39941 10.5001M19.3994 14.5001C19.9298 14.5001 20.4386 14.2894 20.8136 13.9143C21.1887 13.5393 21.3994 13.0306 21.3994 12.5001C21.3994 11.9697 21.1887 11.461 20.8136 11.0859C20.4386 10.7108 19.9298 10.5001 19.3994 10.5001M6.39941 6.00012V3.00012M16.3994 6.00012V3.00012" stroke="white" stroke-width="1.5" stroke-linecap="round" stroke-linejoin="round"/>
<path d="M6.39941 3.00012C6.9517 3.00012 7.39941 2.55241 7.39941 2.00012C7.39941 1.44784 6.9517 1.00012 6.39941 1.00012C5.84713 1.00012 5.39941 1.44784 5.39941 2.00012C5.39941 2.55241 5.84713 3.00012 6.39941 3.00012Z" stroke="white" stroke-width="1.5" stroke-linecap="round" stroke-linejoin="round"/>
<path d="M16.3994 3.00012C16.9517 3.00012 17.3994 2.55241 17.3994 2.00012C17.3994 1.44784 16.9517 1.00012 16.3994 1.00012C15.8471 1.00012 15.3994 1.44784 15.3994 2.00012C15.3994 2.55241 15.8471 3.00012 16.3994 3.00012Z" stroke="white" stroke-width="1.5" stroke-linecap="round" stroke-linejoin="round"/>
<path d="M12.8994 6.00012H9.89941C7.07141 6.00012 5.65641 6.00012 4.77841 6.90912C3.90041 7.81812 3.89941 9.28112 3.89941 12.2071C3.89941 15.1331 3.89941 16.5961 4.77841 17.5051C5.65641 18.4141 7.07141 18.4141 9.89941 18.4141H10.9244C11.7164 18.4141 11.9954 18.5771 12.5414 19.1711C13.1444 19.8281 14.0784 20.7051 14.9234 20.9091C16.1244 21.1991 16.2594 20.7981 15.9914 19.6531C15.9154 19.3271 15.7244 18.8061 15.9254 18.5021C16.0384 18.3321 16.2254 18.2901 16.6004 18.2061C17.1914 18.0741 17.6794 17.8581 18.0204 17.5051C18.8994 16.5951 18.8994 15.1331 18.8994 12.2071C18.8994 9.28112 18.8994 7.81812 18.0204 6.90912C17.1424 6.00012 15.7274 6.00012 12.8994 6.00012Z" fill="white" stroke="white" stroke-width="1.5" stroke-linecap="round" stroke-linejoin="round"/>
<path d="M8.89941 14.0001C9.46941 14.6071 10.3774 15.0001 11.3994 15.0001C12.4214 15.0001 13.3294 14.6071 13.8994 14.0001M8.40841 10.0001H8.39941M14.4084 10.0001H14.3994" stroke="#3D3D3D" stroke-width="1.5" stroke-linecap="round" stroke-linejoin="round"/>
</svg>
