<svg width="15" height="15" viewBox="0 0 15 15" fill="none" xmlns="http://www.w3.org/2000/svg">
<path d="M7.27527 13.551C6.03409 13.551 4.82079 13.183 3.78878 12.4934C2.75678 11.8038 1.95243 10.8237 1.47745 9.67705C1.00248 8.53035 0.8782 7.26855 1.12034 6.05122C1.36248 4.83389 1.96017 3.7157 2.83782 2.83806C3.71546 1.96041 4.83365 1.36273 6.05098 1.12058C7.26831 0.878443 8.53011 1.00272 9.6768 1.4777C10.8235 1.95268 11.8036 2.75702 12.4932 3.78903C13.1827 4.82103 13.5508 6.03433 13.5508 7.27551C13.5508 8.31306 13.2998 9.29135 12.8535 10.1532L13.5508 13.551L10.1529 12.8537C9.2911 13.3 8.31212 13.551 7.27527 13.551Z" stroke="#0062FF" stroke-width="1.67347" stroke-linecap="round" stroke-linejoin="round"/>
</svg>
