<svg width="100%" height="100%" viewBox="0 0 35 35" fill="none" xmlns="http://www.w3.org/2000/svg">
<path d="M3.64871 30.7935C3.64871 31.1031 3.90709 31.3541 4.22584 31.3541L30.7727 31.3542C31.0914 31.3542 31.3498 31.1032 31.3498 30.7937V30.1241C31.3631 29.9224 31.3901 28.9155 30.7264 27.8023C30.3078 27.1004 29.7004 26.4941 28.921 26.0001C27.978 25.4026 26.7784 24.9696 25.3275 24.7089C25.3168 24.7075 24.241 24.5649 23.1389 24.2834C21.2196 23.7932 21.0519 23.3594 21.0508 23.3551C21.0395 23.3123 21.0231 23.2711 21.0022 23.2323C20.9865 23.1514 20.9477 22.8468 21.0219 22.0308C21.2102 19.958 22.322 18.733 23.2154 17.7488C23.4971 17.4384 23.7632 17.1452 23.9682 16.8577C24.8521 15.6174 24.9342 14.207 24.9379 14.1196C24.9379 13.9425 24.9175 13.7969 24.874 13.6619C24.7872 13.3918 24.624 13.2235 24.5048 13.1006L24.504 13.0998C24.4739 13.0689 24.4456 13.0395 24.4224 13.0126C24.4135 13.0024 24.3901 12.9752 24.4114 12.8355C24.4899 12.3215 24.537 11.8912 24.5596 11.4812C24.5998 10.7507 24.6313 9.65825 24.4429 8.59505C24.4196 8.41349 24.3796 8.22172 24.3174 7.99327C24.1184 7.26115 23.7986 6.63521 23.3542 6.11861C23.2778 6.03547 21.4199 4.07808 16.0264 3.67647C15.2806 3.62094 14.5433 3.65085 13.8176 3.68794C13.6427 3.69659 13.4031 3.70846 13.179 3.76654C12.6221 3.91079 12.4735 4.26375 12.4345 4.46129C12.3698 4.7885 12.4835 5.04303 12.5587 5.21149C12.5696 5.23591 12.5831 5.26614 12.5596 5.34477C12.4344 5.53866 12.2374 5.71347 12.0366 5.87908C11.9785 5.9284 10.6261 7.09456 10.5517 8.61795C10.3512 9.77652 10.3664 11.5816 10.6035 12.8293C10.6173 12.8982 10.6376 13.0002 10.6046 13.0691C10.3496 13.2976 10.0606 13.5566 10.0613 14.1476C10.0643 14.207 10.1464 15.6174 11.0304 16.8577C11.2352 17.145 11.501 17.4379 11.7826 17.7481L11.7832 17.7488C12.6766 18.733 13.7883 19.958 13.9767 22.0307C14.0508 22.8468 14.012 23.1514 13.9963 23.2323C13.9754 23.271 13.959 23.3122 13.9478 23.3551C13.9466 23.3593 13.7795 23.7918 11.869 24.281C10.7667 24.5632 9.68168 24.7074 9.6493 24.7121C8.23931 24.9501 7.04711 25.3723 6.10585 25.9667C5.32901 26.4574 4.72045 27.0648 4.29706 27.7723C3.6206 28.9026 3.63889 29.9321 3.64871 30.12V30.7935Z" fill="#5194FF" stroke="#3D3D3D" stroke-linejoin="round"/>
</svg>
