<svg width="17" height="19" viewBox="0 0 17 19" fill="none" xmlns="http://www.w3.org/2000/svg">
<path d="M3.63575 18.6773C3.08575 18.6773 2.61508 18.4817 2.22375 18.0903C1.83241 17.699 1.63641 17.228 1.63575 16.6773V3.67732C1.35241 3.67732 1.11508 3.58132 0.923746 3.38932C0.732412 3.19732 0.636412 2.95999 0.635746 2.67732C0.635079 2.39466 0.731079 2.15732 0.923746 1.96532C1.11641 1.77332 1.35375 1.67732 1.63575 1.67732H5.63575C5.63575 1.39399 5.73175 1.15666 5.92375 0.965322C6.11575 0.773989 6.35308 0.677989 6.63575 0.677322H10.6357C10.9191 0.677322 11.1567 0.773322 11.3487 0.965322C11.5407 1.15732 11.6364 1.39466 11.6357 1.67732H15.6357C15.9191 1.67732 16.1567 1.77332 16.3487 1.96532C16.5407 2.15732 16.6364 2.39466 16.6357 2.67732C16.6351 2.95999 16.5391 3.19766 16.3477 3.39032C16.1564 3.58299 15.9191 3.67866 15.6357 3.67732V16.6773C15.6357 17.2273 15.4401 17.6983 15.0487 18.0903C14.6574 18.4823 14.1864 18.678 13.6357 18.6773H3.63575ZM13.6357 3.67732H3.63575V16.6773H13.6357V3.67732ZM6.63575 14.6773C6.91908 14.6773 7.15675 14.5813 7.34875 14.3893C7.54075 14.1973 7.63641 13.96 7.63575 13.6773V6.67732C7.63575 6.39399 7.53975 6.15666 7.34775 5.96532C7.15575 5.77399 6.91841 5.67799 6.63575 5.67732C6.35308 5.67666 6.11575 5.77266 5.92375 5.96532C5.73175 6.15799 5.63575 6.39532 5.63575 6.67732V13.6773C5.63575 13.9607 5.73175 14.1983 5.92375 14.3903C6.11575 14.5823 6.35308 14.678 6.63575 14.6773ZM10.6357 14.6773C10.9191 14.6773 11.1567 14.5813 11.3487 14.3893C11.5407 14.1973 11.6364 13.96 11.6357 13.6773V6.67732C11.6357 6.39399 11.5397 6.15666 11.3477 5.96532C11.1557 5.77399 10.9184 5.67799 10.6357 5.67732C10.3531 5.67666 10.1157 5.77266 9.92375 5.96532C9.73175 6.15799 9.63575 6.39532 9.63575 6.67732V13.6773C9.63575 13.9607 9.73175 14.1983 9.92375 14.3903C10.1157 14.5823 10.3531 14.678 10.6357 14.6773Z" fill="#B7B7B7"/>
</svg>
