<svg width="325" height="207" viewBox="0 0 325 207" fill="none" xmlns="http://www.w3.org/2000/svg">
<g clip-path="url(#clip0_866_3815)">
<path d="M27.2483 181.034C28.0653 182.192 28.188 183.457 27.6164 184.83C27.0448 186.203 26.1531 187.316 24.9415 188.171C24.3832 188.565 23.8112 188.882 23.2255 189.121C22.6398 189.361 22.0969 189.545 21.5967 189.675L16.3237 184.676C16.5744 184.193 16.9734 183.595 17.5206 182.882C18.0677 182.17 18.8114 181.481 19.7514 180.818C21.1539 179.828 22.5667 179.351 23.9899 179.387C25.4131 179.423 26.4992 179.972 27.2483 181.034ZM14.1526 191.961C13.4702 190.994 13.2762 190.004 13.5704 188.991C13.8647 187.978 14.4305 187.125 15.2676 186.431L20.0492 190.951C19.8946 191.223 19.7045 191.51 19.4787 191.812C19.253 192.115 18.9838 192.376 18.6711 192.597C17.895 193.144 17.0775 193.359 16.2187 193.241C15.3599 193.122 14.6708 192.695 14.1526 191.961ZM29.5068 192.904C30.2564 193.966 30.4099 195.174 29.967 196.527C29.5242 197.88 28.6018 199.051 27.1999 200.041C26.2604 200.704 25.363 201.174 24.5077 201.452C23.6524 201.729 22.9555 201.905 22.417 201.979L19.4724 195.336C19.7616 194.907 20.1173 194.458 20.5396 193.987C20.9619 193.515 21.452 193.083 22.0099 192.688C23.2217 191.833 24.5699 191.366 26.0544 191.287C27.5389 191.209 28.6897 191.748 29.5068 192.904ZM14.8252 201.584C14.3062 200.849 14.1347 200.057 14.3108 199.208C14.4868 198.359 14.9631 197.661 15.7396 197.114C16.0528 196.893 16.3892 196.727 16.749 196.616C17.1087 196.505 17.4431 196.422 17.752 196.367L20.395 202.365C19.4619 202.922 18.4708 203.173 17.4217 203.118C16.3725 203.063 15.5071 202.552 14.8252 201.584Z" fill="#CFCED3"/>
</g>
<g clip-path="url(#clip1_866_3815)">
<path d="M61.4065 179.722C60.5895 178.564 59.4385 178.025 57.9535 178.104C56.4685 178.182 55.1205 178.65 53.9096 179.505C53.3513 179.899 52.8612 180.332 52.4393 180.804C52.0174 181.275 51.6617 181.725 51.3721 182.153L54.3167 188.796C54.8557 188.721 55.5526 188.546 56.4074 188.269C57.2621 187.992 58.1595 187.522 59.0996 186.858C60.5021 185.868 61.4247 184.697 61.8675 183.344C62.3104 181.991 62.1567 180.783 61.4065 179.722ZM46.7249 188.402C47.4073 189.368 48.2751 189.883 49.3283 189.945C50.3814 190.007 51.3751 189.76 52.3091 189.203L49.6517 183.184C49.3433 183.238 49.009 183.321 48.6487 183.433C48.2884 183.544 47.9519 183.71 47.6393 183.931C46.8631 184.479 46.3871 185.177 46.211 186.026C46.035 186.875 46.2067 187.667 46.7249 188.402ZM50.9782 173.618C50.2286 172.556 49.1421 172.007 47.719 171.971C46.2958 171.935 44.8833 172.412 43.4813 173.402C42.5418 174.065 41.7982 174.753 41.2505 175.466C40.7027 176.179 40.3038 176.777 40.0536 177.259L45.3266 182.259C45.8272 182.13 46.3701 181.945 46.9554 181.705C47.5407 181.465 48.1127 181.148 48.6714 180.755C49.8832 179.899 50.7747 178.785 51.3457 177.413C51.9167 176.04 51.7942 174.775 50.9782 173.618ZM37.8825 184.545C38.4015 185.28 39.0904 185.707 39.9492 185.825C40.808 185.944 41.6253 185.729 42.401 185.181C42.7142 184.959 42.9834 184.698 43.2086 184.396C43.4338 184.095 43.624 183.807 43.7791 183.535L39.0119 179.035C38.1749 179.728 37.6067 180.578 37.3073 181.585C37.0078 182.592 37.1996 183.578 37.8825 184.545Z" fill="#CFCED3"/>
</g>
<g clip-path="url(#clip2_866_3815)">
<path d="M77.641 146.511C78.5674 147.583 78.8134 148.83 78.3791 150.252C77.9448 151.674 77.1665 152.87 76.0444 153.839C75.5274 154.286 74.9892 154.657 74.4298 154.953C73.8704 155.249 73.3482 155.486 72.863 155.664L67.1257 151.205C67.3278 150.7 67.6663 150.066 68.141 149.303C68.6158 148.54 69.2884 147.783 70.1589 147.03C71.4577 145.908 72.817 145.294 74.2368 145.191C75.6566 145.087 76.7913 145.527 77.641 146.511ZM65.6788 158.668C64.905 157.773 64.6149 156.807 64.8085 155.77C65.0021 154.733 65.4815 153.828 66.2466 153.055L71.448 157.085C71.3209 157.371 71.1598 157.676 70.9647 157.998C70.7697 158.321 70.5274 158.608 70.2379 158.858C69.5191 159.479 68.7266 159.773 67.8604 159.739C66.9941 159.706 66.2665 159.348 65.6788 158.668ZM81.0515 158.103C81.9016 159.086 82.1726 160.273 81.8645 161.663C81.5564 163.053 80.7532 164.309 79.4549 165.431C78.5849 166.183 77.7379 166.739 76.9139 167.098C76.0899 167.458 75.4136 167.701 74.8849 167.828L71.3037 161.506C71.5495 161.051 71.8594 160.568 72.2335 160.058C72.6076 159.548 73.053 159.069 73.5695 158.622C74.6917 157.652 75.9877 157.055 77.4573 156.832C78.927 156.608 80.125 157.032 81.0515 158.103ZM67.291 168.179C66.7025 167.498 66.4542 166.727 66.5462 165.865C66.6383 165.003 67.0438 164.262 67.763 163.641C68.053 163.39 68.3716 163.192 68.7187 163.046C69.0659 162.9 69.3904 162.785 69.6925 162.7L72.9105 168.411C72.0364 169.056 71.0747 169.403 70.0252 169.451C68.9757 169.499 68.0643 169.075 67.291 168.179Z" fill="#CFCED3"/>
</g>
<g clip-path="url(#clip3_866_3815)">
<path d="M114.015 148.226C113.089 147.154 111.891 146.73 110.42 146.954C108.95 147.178 107.655 147.775 106.533 148.745C106.016 149.192 105.571 149.671 105.197 150.181C104.824 150.692 104.514 151.174 104.267 151.629L107.849 157.951C108.378 157.824 109.054 157.581 109.878 157.222C110.701 156.862 111.548 156.306 112.419 155.554C113.717 154.431 114.521 153.175 114.829 151.785C115.137 150.395 114.866 149.209 114.015 148.226ZM100.255 158.302C101.029 159.198 101.943 159.625 102.997 159.583C104.051 159.542 105.016 159.198 105.891 158.553L102.656 152.823C102.355 152.907 102.03 153.023 101.682 153.169C101.335 153.315 101.016 153.514 100.727 153.764C100.008 154.385 99.6027 155.127 99.5107 155.989C99.4186 156.851 99.6671 157.623 100.255 158.302ZM103.039 143.173C102.189 142.19 101.054 141.75 99.6343 141.854C98.2145 141.957 96.8555 142.57 95.5572 143.693C94.6872 144.445 94.0146 145.202 93.5393 145.966C93.0641 146.729 92.7256 147.363 92.5239 147.868L98.2613 152.326C98.7469 152.149 99.2691 151.912 99.8281 151.616C100.387 151.319 100.925 150.948 101.443 150.502C102.565 149.532 103.343 148.336 103.777 146.914C104.211 145.492 103.965 144.245 103.039 143.173ZM91.0771 155.331C91.6656 156.012 92.393 156.369 93.2593 156.403C94.1256 156.436 94.9179 156.142 95.6361 155.52C95.9262 155.27 96.1684 154.983 96.363 154.661C96.5575 154.339 96.7187 154.034 96.8463 153.747L91.6613 149.737C90.8962 150.508 90.4139 151.41 90.2146 152.441C90.0152 153.473 90.3027 154.436 91.0771 155.331Z" fill="#CFCED3"/>
</g>
<g clip-path="url(#clip4_866_3815)">
<path d="M135.331 116.297C136.258 117.369 136.504 118.616 136.07 120.039C135.635 121.461 134.857 122.657 133.735 123.626C133.218 124.072 132.68 124.444 132.12 124.74C131.561 125.035 131.039 125.272 130.553 125.45L124.816 120.992C125.018 120.486 125.357 119.852 125.831 119.09C126.306 118.327 126.979 117.569 127.849 116.817C129.148 115.694 130.507 115.081 131.927 114.977C133.347 114.873 134.482 115.314 135.331 116.297ZM123.369 128.455C122.595 127.559 122.305 126.593 122.499 125.556C122.693 124.519 123.172 123.614 123.937 122.842L129.138 126.872C129.011 127.158 128.85 127.462 128.655 127.785C128.46 128.108 128.218 128.394 127.928 128.645C127.21 129.266 126.417 129.56 125.551 129.526C124.685 129.492 123.957 129.135 123.369 128.455ZM138.742 127.889C139.592 128.873 139.863 130.059 139.555 131.449C139.247 132.839 138.444 134.095 137.145 135.217C136.275 135.969 135.428 136.525 134.604 136.885C133.78 137.245 133.104 137.488 132.575 137.614L128.994 131.292C129.24 130.837 129.55 130.355 129.924 129.845C130.298 129.334 130.743 128.856 131.26 128.408C132.382 127.438 133.678 126.842 135.148 126.618C136.617 126.395 137.815 126.818 138.742 127.889ZM124.981 137.966C124.393 137.285 124.145 136.514 124.237 135.651C124.329 134.789 124.734 134.048 125.453 133.427C125.743 133.177 126.062 132.978 126.409 132.833C126.756 132.687 127.081 132.571 127.383 132.487L130.601 138.197C129.727 138.843 128.765 139.19 127.716 139.237C126.666 139.285 125.755 138.862 124.981 137.966Z" fill="#7E7E7E"/>
</g>
<g clip-path="url(#clip5_866_3815)">
<path d="M171.706 115.012C170.779 113.941 169.581 113.517 168.111 113.74C166.641 113.964 165.345 114.561 164.224 115.531C163.707 115.978 163.261 116.457 162.888 116.968C162.514 117.478 162.204 117.961 161.958 118.415L165.539 124.737C166.068 124.611 166.745 124.367 167.568 124.008C168.392 123.649 169.239 123.093 170.109 122.34C171.408 121.218 172.211 119.962 172.519 118.572C172.828 117.182 172.556 115.995 171.706 115.012ZM157.945 125.089C158.719 125.984 159.633 126.411 160.687 126.37C161.741 126.328 162.706 125.985 163.581 125.339L160.347 119.61C160.045 119.694 159.721 119.809 159.373 119.956C159.025 120.102 158.707 120.3 158.417 120.55C157.698 121.172 157.293 121.913 157.201 122.775C157.109 123.637 157.358 124.409 157.945 125.089ZM160.73 109.96C159.88 108.976 158.745 108.537 157.325 108.64C155.905 108.744 154.546 109.357 153.248 110.479C152.378 111.231 151.705 111.989 151.23 112.752C150.755 113.515 150.416 114.149 150.214 114.654L155.952 119.113C156.437 118.935 156.96 118.698 157.519 118.402C158.077 118.106 158.616 117.734 159.133 117.288C160.255 116.318 161.033 115.122 161.467 113.7C161.901 112.278 161.655 111.032 160.73 109.96ZM148.767 122.117C149.356 122.798 150.083 123.155 150.95 123.189C151.816 123.223 152.608 122.929 153.327 122.307C153.617 122.056 153.859 121.77 154.053 121.447C154.248 121.125 154.409 120.821 154.537 120.534L149.352 116.523C148.587 117.295 148.104 118.196 147.905 119.228C147.706 120.259 147.993 121.222 148.767 122.117Z" fill="#7E7E7E"/>
</g>
<g clip-path="url(#clip6_866_3815)">
<path d="M192.549 83.0661C193.361 84.2269 193.478 85.4926 192.901 86.863C192.324 88.2335 191.427 89.3434 190.212 90.1928C189.652 90.5845 189.079 90.899 188.492 91.1361C187.906 91.3733 187.362 91.5556 186.861 91.6829L181.609 86.6617C181.862 86.1798 182.263 85.5837 182.813 84.8733C183.364 84.163 184.11 83.478 185.053 82.8184C186.46 81.8343 187.874 81.3632 189.297 81.405C190.72 81.4468 191.804 82.0006 192.549 83.0661ZM179.408 93.9379C178.729 92.9683 178.539 91.9776 178.838 90.9657C179.136 89.9538 179.706 89.1028 180.546 88.4125L185.308 92.9523C185.153 93.224 184.961 93.5104 184.734 93.8116C184.507 94.1128 184.237 94.3731 183.923 94.5925C183.145 95.1371 182.327 95.3483 181.468 95.2263C180.61 95.1043 179.923 94.6743 179.408 93.9379ZM194.758 94.9456C195.503 96.0108 195.651 97.2189 195.203 98.5701C194.754 99.9212 193.827 101.089 192.421 102.072C191.479 102.732 190.579 103.198 189.723 103.472C188.866 103.745 188.169 103.918 187.63 103.99L184.713 97.3351C185.004 96.9078 185.362 96.4595 185.786 95.9902C186.21 95.5209 186.702 95.0901 187.262 94.6978C188.477 93.8475 189.827 93.3863 191.312 93.3141C192.797 93.2419 193.945 93.7857 194.758 94.9456ZM180.04 103.564C179.524 102.827 179.356 102.034 179.535 101.186C179.715 100.338 180.194 99.6415 180.973 99.0975C181.287 98.8777 181.624 98.713 181.984 98.6034C182.345 98.4938 182.679 98.4122 182.988 98.3587L185.606 104.368C184.671 104.921 183.679 105.168 182.63 105.108C181.581 105.049 180.718 104.534 180.04 103.564Z" fill="#7E7E7E"/>
</g>
<g clip-path="url(#clip7_866_3815)">
<path d="M219.974 91.9087C219.162 90.7479 218.013 90.2038 216.528 90.2763C215.043 90.3489 213.693 90.8104 212.478 91.6609C211.918 92.0526 211.426 92.4834 211.003 92.9532C210.579 93.4231 210.221 93.8714 209.93 94.2981L212.846 100.953C213.386 100.881 214.083 100.708 214.939 100.435C215.795 100.161 216.695 99.695 217.637 99.0354C219.044 98.0513 219.972 96.8837 220.42 95.5326C220.869 94.1814 220.72 92.9735 219.974 91.9087ZM205.256 100.527C205.935 101.497 206.8 102.015 207.853 102.081C208.906 102.148 209.901 101.905 210.837 101.352L208.205 95.3217C207.896 95.3749 207.562 95.4565 207.201 95.5665C206.84 95.6765 206.503 95.8412 206.189 96.0605C205.411 96.6051 204.932 97.3015 204.752 98.1496C204.573 98.9977 204.741 99.7908 205.256 100.527ZM209.571 85.7617C208.826 84.6965 207.742 84.1429 206.319 84.1011C204.896 84.0593 203.482 84.5302 202.076 85.5139C201.133 86.1731 200.387 86.8581 199.836 87.5688C199.285 88.2796 198.884 88.8757 198.632 89.3572L203.884 94.3785C204.385 94.2516 204.929 94.0693 205.515 93.8316C206.101 93.594 206.674 93.2795 207.235 92.8883C208.45 92.038 209.346 90.9278 209.923 89.5577C210.5 88.1876 210.383 86.9223 209.571 85.7617ZM196.43 96.6335C196.946 97.3709 197.633 97.8006 198.492 97.9227C199.35 98.0447 200.168 97.8331 200.946 97.288C201.26 97.0683 201.53 96.808 201.757 96.5072C201.983 96.2063 202.175 95.9199 202.331 95.6479L197.583 91.1285C196.743 91.8178 196.171 92.6653 195.867 93.671C195.564 94.6768 195.751 95.6642 196.43 96.6335Z" fill="black"/>
</g>
<g clip-path="url(#clip8_866_3815)">
<path d="M238.239 65.0661C239.051 66.2269 239.168 67.4926 238.591 68.863C238.014 70.2335 237.117 71.3434 235.902 72.1928C235.342 72.5845 234.769 72.899 234.182 73.1361C233.595 73.3733 233.052 73.5556 232.551 73.6829L227.299 68.6617C227.552 68.1798 227.953 67.5837 228.503 66.8733C229.054 66.163 229.8 65.478 230.743 64.8184C232.149 63.8343 233.564 63.3632 234.987 63.405C236.41 63.4468 237.494 64.0006 238.239 65.0661ZM225.097 75.9379C224.419 74.9683 224.229 73.9776 224.528 72.9657C224.826 71.9538 225.396 71.1028 226.236 70.4125L230.998 74.9523C230.843 75.224 230.651 75.5104 230.424 75.8116C230.197 76.1128 229.927 76.3731 229.613 76.5925C228.835 77.1371 228.017 77.3483 227.158 77.2263C226.3 77.1043 225.613 76.6743 225.097 75.9379ZM240.448 76.9456C241.193 78.0108 241.341 79.2189 240.893 80.5701C240.444 81.9212 239.517 83.0886 238.111 84.0723C237.169 84.7315 236.269 85.198 235.413 85.4717C234.556 85.7454 233.859 85.9182 233.32 85.9901L230.403 79.3351C230.694 78.9078 231.052 78.4595 231.476 77.9902C231.9 77.5209 232.392 77.0901 232.952 76.6978C234.167 75.8475 235.517 75.3863 237.002 75.3141C238.487 75.2419 239.635 75.7857 240.448 76.9456ZM225.73 85.5641C225.214 84.8266 225.046 84.0339 225.225 83.1857C225.405 82.3376 225.884 81.6415 226.663 81.0975C226.977 80.8777 227.314 80.713 227.674 80.6034C228.035 80.4938 228.369 80.4122 228.678 80.3587L231.296 86.3684C230.361 86.9211 229.369 87.1678 228.32 87.1083C227.271 87.0488 226.408 86.5341 225.73 85.5641Z" fill="black"/>
</g>
<g clip-path="url(#clip9_866_3815)">
<path d="M268.664 68.9087C267.852 67.7479 266.703 67.2038 265.218 67.2763C263.733 67.3489 262.383 67.8104 261.168 68.6609C260.608 69.0526 260.116 69.4834 259.692 69.9532C259.269 70.4231 258.911 70.8714 258.62 71.2981L261.536 77.9531C262.076 77.8809 262.773 77.7081 263.629 77.4348C264.485 77.1614 265.385 76.695 266.327 76.0354C267.734 75.0513 268.661 73.8837 269.11 72.5326C269.558 71.1814 269.41 69.9735 268.664 68.9087ZM253.946 77.5272C254.625 78.4968 255.49 79.0148 256.543 79.0812C257.596 79.1476 258.591 78.9045 259.527 78.352L256.895 72.3217C256.586 72.3749 256.252 72.4565 255.891 72.5665C255.53 72.6765 255.193 72.8412 254.879 73.0605C254.101 73.6051 253.622 74.3015 253.442 75.1496C253.263 75.9977 253.431 76.7908 253.946 77.5272ZM258.261 62.7617C257.516 61.6965 256.432 61.1429 255.009 61.1011C253.586 61.0593 252.172 61.5302 250.766 62.5139C249.823 63.1731 249.077 63.8581 248.526 64.5688C247.975 65.2796 247.574 65.8757 247.322 66.3572L252.574 71.3785C253.075 71.2516 253.619 71.0693 254.205 70.8316C254.791 70.594 255.364 70.2795 255.925 69.8883C257.14 69.038 258.036 67.9278 258.613 66.5577C259.19 65.1876 259.073 63.9223 258.261 62.7617ZM245.12 73.6335C245.636 74.3709 246.323 74.8006 247.181 74.9227C248.04 75.0447 248.858 74.8331 249.636 74.288C249.95 74.0683 250.22 73.808 250.447 73.5072C250.673 73.2063 250.865 72.9199 251.021 72.6479L246.273 68.1285C245.433 68.8178 244.861 69.6653 244.557 70.671C244.254 71.6768 244.441 72.6642 245.12 73.6335Z" fill="black"/>
</g>
<g clip-path="url(#clip10_866_3815)">
<path d="M281.239 41.0661C282.051 42.2269 282.168 43.4926 281.591 44.863C281.014 46.2335 280.117 47.3434 278.902 48.1928C278.342 48.5845 277.769 48.899 277.182 49.1361C276.595 49.3733 276.052 49.5556 275.551 49.6829L270.299 44.6617C270.552 44.1798 270.953 43.5837 271.503 42.8733C272.054 42.163 272.8 41.478 273.743 40.8184C275.149 39.8343 276.564 39.3632 277.987 39.405C279.41 39.4468 280.494 40.0006 281.239 41.0661ZM268.097 51.9379C267.419 50.9683 267.229 49.9776 267.528 48.9657C267.826 47.9538 268.396 47.1028 269.236 46.4125L273.998 50.9523C273.843 51.224 273.651 51.5104 273.424 51.8116C273.197 52.1128 272.927 52.3731 272.613 52.5925C271.835 53.1371 271.017 53.3483 270.158 53.2263C269.3 53.1043 268.613 52.6743 268.097 51.9379ZM283.448 52.9456C284.193 54.0108 284.341 55.2189 283.893 56.5701C283.444 57.9212 282.517 59.0886 281.111 60.0723C280.169 60.7315 279.269 61.198 278.413 61.4717C277.556 61.7454 276.859 61.9182 276.32 61.9901L273.403 55.3351C273.694 54.9078 274.052 54.4595 274.476 53.9902C274.9 53.5209 275.392 53.0901 275.952 52.6978C277.167 51.8475 278.517 51.3863 280.002 51.3141C281.487 51.2419 282.635 51.7857 283.448 52.9456ZM268.73 61.5641C268.214 60.8266 268.046 60.0339 268.225 59.1857C268.405 58.3376 268.884 57.6415 269.663 57.0975C269.977 56.8777 270.314 56.713 270.674 56.6034C271.035 56.4938 271.369 56.4122 271.678 56.3587L274.296 62.3684C273.361 62.9211 272.369 63.1678 271.32 63.1083C270.271 63.0488 269.408 62.5341 268.73 61.5641Z" fill="black"/>
</g>
<g clip-path="url(#clip11_866_3815)">
<path d="M318.141 17.2913C318.691 18.5967 318.54 19.8588 317.688 21.0775C316.836 22.2962 315.726 23.1932 314.36 23.7684C313.73 24.0338 313.104 24.2209 312.48 24.3295C311.857 24.4382 311.287 24.5022 310.771 24.5216L306.69 18.5095C307.038 18.0914 307.556 17.5929 308.243 17.0139C308.93 16.4349 309.804 15.9219 310.864 15.475C312.446 14.8083 313.928 14.6447 315.311 14.9844C316.693 15.3241 317.637 16.0931 318.141 17.2913ZM303.01 25.1612C302.55 24.0708 302.572 23.0623 303.077 22.1356C303.581 21.209 304.316 20.4964 305.283 19.998L308.986 25.4367C308.777 25.6696 308.529 25.9094 308.244 26.1563C307.959 26.4031 307.64 26.6008 307.287 26.7494C306.412 27.1184 305.567 27.1531 304.754 26.8536C303.94 26.5541 303.359 25.9893 303.01 25.1612ZM317.806 29.3697C318.311 30.5676 318.202 31.78 317.48 33.0068C316.758 34.2337 315.606 35.1803 314.025 35.8468C312.965 36.2935 311.988 36.5607 311.093 36.6485C310.198 36.7363 309.48 36.7587 308.938 36.7158L307.484 29.5967C307.858 29.2401 308.302 28.8768 308.815 28.5071C309.328 28.1373 309.9 27.8194 310.529 27.5534C311.896 26.9773 313.313 26.8098 314.78 27.051C316.247 27.2922 317.255 28.0651 317.806 29.3697ZM301.607 34.7055C301.257 33.8762 301.259 33.0658 301.613 32.2742C301.966 31.4827 302.581 30.9028 303.457 30.5344C303.81 30.3855 304.174 30.2953 304.549 30.2638C304.925 30.2322 305.269 30.2227 305.582 30.2353L306.88 36.6608C305.849 37.0048 304.828 37.0376 303.815 36.7592C302.802 36.4808 302.066 35.7962 301.607 34.7055Z" fill="black"/>
</g>
<g clip-path="url(#clip12_866_3815)">
<path d="M311.664 44.9087C310.852 43.7479 309.703 43.2038 308.218 43.2763C306.733 43.3489 305.383 43.8104 304.168 44.6609C303.608 45.0526 303.116 45.4834 302.692 45.9532C302.269 46.4231 301.911 46.8714 301.62 47.2981L304.536 53.9531C305.076 53.8809 305.773 53.7081 306.629 53.4348C307.485 53.1614 308.385 52.695 309.327 52.0354C310.734 51.0513 311.661 49.8837 312.11 48.5326C312.558 47.1814 312.41 45.9735 311.664 44.9087ZM296.946 53.5272C297.625 54.4968 298.49 55.0148 299.543 55.0812C300.596 55.1476 301.591 54.9045 302.527 54.352L299.895 48.3217C299.586 48.3749 299.252 48.4565 298.891 48.5665C298.53 48.6765 298.193 48.8412 297.879 49.0605C297.101 49.6051 296.622 50.3015 296.442 51.1496C296.263 51.9977 296.431 52.7908 296.946 53.5272ZM301.261 38.7617C300.516 37.6965 299.432 37.1429 298.009 37.1011C296.586 37.0593 295.172 37.5302 293.766 38.5139C292.823 39.1731 292.077 39.8581 291.526 40.5688C290.975 41.2796 290.574 41.8757 290.322 42.3572L295.574 47.3785C296.075 47.2516 296.619 47.0693 297.205 46.8316C297.791 46.594 298.364 46.2795 298.925 45.8883C300.14 45.038 301.036 43.9278 301.613 42.5577C302.19 41.1876 302.073 39.9223 301.261 38.7617ZM288.12 49.6335C288.636 50.3709 289.323 50.8006 290.181 50.9227C291.04 51.0447 291.858 50.8331 292.636 50.288C292.95 50.0683 293.22 49.808 293.447 49.5072C293.673 49.2063 293.865 48.9199 294.021 48.6479L289.273 44.1285C288.433 44.8178 287.861 45.6653 287.557 46.671C287.254 47.6768 287.441 48.6642 288.12 49.6335Z" fill="black"/>
</g>
<defs>
<clipPath id="clip0_866_3815">
<rect width="24" height="24" fill="white" transform="translate(19.6074 165.007) rotate(54.7835)"/>
</clipPath>
<clipPath id="clip1_866_3815">
<rect width="24" height="24" fill="white" transform="matrix(-0.576668 -0.816979 -0.816979 0.576668 73.9492 192.289)"/>
</clipPath>
<clipPath id="clip2_866_3815">
<rect width="24" height="24" fill="white" transform="translate(68.4668 131.31) rotate(49.1609)"/>
</clipPath>
<clipPath id="clip3_866_3815">
<rect width="24" height="24" fill="white" transform="matrix(-0.653937 -0.756549 -0.756549 0.653937 127.729 159.504)"/>
</clipPath>
<clipPath id="clip4_866_3815">
<rect width="24" height="24" fill="white" transform="translate(126.157 101.096) rotate(49.1609)"/>
</clipPath>
<clipPath id="clip5_866_3815">
<rect width="24" height="24" fill="white" transform="matrix(-0.653937 -0.756549 -0.756549 0.653937 185.419 126.29)"/>
</clipPath>
<clipPath id="clip6_866_3815">
<rect width="24" height="24" fill="white" transform="translate(184.975 67.0072) rotate(55.0232)"/>
</clipPath>
<clipPath id="clip7_866_3815">
<rect width="24" height="24" fill="white" transform="matrix(-0.573244 -0.819384 -0.819384 0.573244 232.464 104.528)"/>
</clipPath>
<clipPath id="clip8_866_3815">
<rect width="24" height="24" fill="white" transform="translate(230.665 49.0072) rotate(55.0232)"/>
</clipPath>
<clipPath id="clip9_866_3815">
<rect width="24" height="24" fill="white" transform="matrix(-0.573244 -0.819384 -0.819384 0.573244 281.154 81.5281)"/>
</clipPath>
<clipPath id="clip10_866_3815">
<rect width="24" height="24" fill="white" transform="translate(273.665 25.0072) rotate(55.0232)"/>
</clipPath>
<clipPath id="clip11_866_3815">
<rect width="24" height="24" fill="white" transform="translate(314.108) rotate(67.1447)"/>
</clipPath>
<clipPath id="clip12_866_3815">
<rect width="24" height="24" fill="white" transform="matrix(-0.573244 -0.819384 -0.819384 0.573244 324.154 57.5281)"/>
</clipPath>
</defs>
</svg>
