<svg width="24" height="21" viewBox="0 0 16 14" fill="none" xmlns="http://www.w3.org/2000/svg">
<path d="M14.9367 5.4718C15.5083 4.09892 15.3856 2.83379 14.5686 1.6764C13.8195 0.613948 12.7334 0.0647808 11.3102 0.0289034C9.88706 -0.00697399 8.47424 0.47006 7.07176 1.46001C6.13169 2.12356 5.38806 2.81166 4.84087 3.5243C4.29368 4.23694 3.89473 4.83474 3.64402 5.31771L8.91698 10.3169C9.41719 10.1874 9.96014 10.0029 10.5458 9.7633C11.1315 9.5237 11.7035 9.20687 12.2618 8.81282C13.4735 7.95835 14.3651 6.84468 14.9367 5.4718Z" fill="currentColor"/>
<path d="M0.890759 9.63327C0.596472 10.6464 0.790524 11.6363 1.47291 12.6031C1.99115 13.3373 2.68024 13.7644 3.53905 13.8828C4.39786 14.0013 5.21532 13.7866 5.99145 13.2387C6.30408 13.0181 6.57327 12.7567 6.79902 12.4545C7.02476 12.1524 7.21493 11.8651 7.36952 11.5928L2.58794 7.07297C1.75077 7.76671 1.18505 8.62014 0.890759 9.63327Z" fill="currentColor"/>
</svg>
