<svg width="26" height="24" viewBox="0 0 10 18" fill="none" xmlns="http://www.w3.org/2000/svg">
<path d="M5 0.900024C6.3 0.900024 7.375 1.47102 8.225 2.61302C9.075 3.75502 9.5 5.18403 9.5 6.90003C9.5 8.05003 9.36667 9.05436 9.1 9.91303C8.83334 10.7717 8.575 11.4424 8.325 11.925L1.2 10.5C1.01667 10.0167 0.854335 9.46669 0.713001 8.85003C0.571668 8.23336 0.500668 7.58336 0.500001 6.90003C0.500001 5.41669 0.896001 4.04602 1.688 2.78802C2.48 1.53002 3.584 0.900691 5 0.900024ZM3.625 17.9C2.725 17.9 1.979 17.5834 1.387 16.95C0.795001 16.3167 0.499334 15.525 0.500001 14.575C0.500001 14.1917 0.558335 13.821 0.675001 13.463C0.791668 13.105 0.916668 12.784 1.05 12.5L7.475 13.8C7.39167 14.8834 7.025 15.8377 6.375 16.663C5.725 17.4884 4.80833 17.9007 3.625 17.9Z" fill="currentColor"/>
</svg>
