<svg width="26" height="20" viewBox="0 0 17 13" fill="none" xmlns="http://www.w3.org/2000/svg">
<path d="M15.905 2.04033C15.088 0.882945 13.9371 0.343644 12.452 0.42243C10.967 0.501215 9.61904 0.968382 8.40812 1.82393C7.84985 2.21799 7.35976 2.65083 6.93784 3.12245C6.51592 3.59407 6.1602 4.04386 5.87066 4.47182L8.81522 11.1145C9.35426 11.0401 10.0512 10.8644 10.9059 10.5875C11.7606 10.3105 12.6581 9.84029 13.5981 9.17674C15.0006 8.1868 15.9233 7.01533 16.3661 5.66234C16.8089 4.30936 16.6552 3.10202 15.905 2.04033ZM1.22344 10.7203C1.90583 11.6871 2.77361 12.2015 3.82679 12.2635C4.87998 12.3255 5.87359 12.0783 6.80764 11.5218L4.1502 5.50261C3.84184 5.55707 3.5075 5.64006 3.1472 5.75157C2.7869 5.86309 2.45043 6.02919 2.1378 6.24986C1.36167 6.79769 0.885594 7.49604 0.709561 8.34492C0.533528 9.19379 0.705204 9.98614 1.22344 10.7203Z" fill="currentColor"/>
</svg>
