<svg width="24" height="21" viewBox="0 0 10 18" fill="none" xmlns="http://www.w3.org/2000/svg">
<path d="M5.21143 0.711548C6.62809 0.711548 7.73243 1.34088 8.52443 2.59955C9.31643 3.85822 9.71209 5.22888 9.71143 6.71155C9.71143 7.39488 9.64043 8.04488 9.49843 8.66155C9.35643 9.27822 9.19409 9.82822 9.01143 10.3116L1.88643 11.7365C1.63643 11.2532 1.37809 10.5825 1.11143 9.72455C0.844759 8.86655 0.711426 7.86222 0.711426 6.71155C0.711426 4.99488 1.13643 3.56555 1.98643 2.42355C2.83643 1.28155 3.91143 0.710882 5.21143 0.711548ZM6.58643 17.7115C5.40309 17.7115 4.48243 17.2992 3.82443 16.4746C3.16643 15.6499 2.79543 14.6956 2.71143 13.6116L9.16143 12.3116C9.29476 12.5949 9.41976 12.9159 9.53643 13.2746C9.65309 13.6332 9.71143 14.0039 9.71143 14.3866C9.71143 15.3366 9.41543 16.1282 8.82343 16.7615C8.23143 17.3949 7.48509 17.7115 6.58643 17.7115Z" fill="currentColor"/>
</svg>
