<svg width="18" height="18" viewBox="0 0 18 18" fill="none" xmlns="http://www.w3.org/2000/svg">
<path d="M16.7895 8.99957H6.24467M2.52262 8.99957H1M2.52262 8.99957C2.52262 8.50611 2.71864 8.03286 3.06757 7.68393C3.4165 7.335 3.88975 7.13898 4.38321 7.13898C4.87668 7.13898 5.34993 7.335 5.69886 7.68393C6.04779 8.03286 6.24381 8.50611 6.24381 8.99957C6.24381 9.49303 6.04779 9.96628 5.69886 10.3152C5.34993 10.6641 4.87668 10.8602 4.38321 10.8602C3.88975 10.8602 3.4165 10.6641 3.06757 10.3152C2.71864 9.96628 2.52262 9.49303 2.52262 8.99957ZM16.7895 14.6385H11.8836M11.8836 14.6385C11.8836 15.1321 11.6871 15.6059 11.3381 15.9549C10.9891 16.3039 10.5158 16.5 10.0222 16.5C9.52873 16.5 9.05548 16.3031 8.70655 15.9542C8.35762 15.6053 8.16159 15.132 8.16159 14.6385M11.8836 14.6385C11.8836 14.145 11.6871 13.672 11.3381 13.323C10.9891 12.974 10.5158 12.778 10.0222 12.778C9.52873 12.778 9.05548 12.974 8.70655 13.3229C8.35762 13.6718 8.16159 14.1451 8.16159 14.6385M8.16159 14.6385H1M16.7895 3.3606H14.1394M10.4174 3.3606H1M10.4174 3.3606C10.4174 2.86714 10.6134 2.39389 10.9623 2.04496C11.3112 1.69603 11.7845 1.5 12.278 1.5C12.5223 1.5 12.7642 1.54813 12.99 1.64163C13.2157 1.73513 13.4208 1.87218 13.5936 2.04496C13.7664 2.21773 13.9034 2.42284 13.9969 2.64858C14.0904 2.87432 14.1385 3.11626 14.1385 3.3606C14.1385 3.60493 14.0904 3.84688 13.9969 4.07262C13.9034 4.29836 13.7664 4.50347 13.5936 4.67624C13.4208 4.84901 13.2157 4.98606 12.99 5.07957C12.7642 5.17307 12.5223 5.22119 12.278 5.22119C11.7845 5.22119 11.3112 5.02517 10.9623 4.67624C10.6134 4.32731 10.4174 3.85406 10.4174 3.3606Z" stroke="#3D3D3D" stroke-width="1.5" stroke-miterlimit="10" stroke-linecap="round"/>
</svg>
