<svg width="16" height="14" viewBox="0 0 16 14" fill="none" xmlns="http://www.w3.org/2000/svg">
<path d="M13.2971 0.751556C11.3097 -0.614007 8.8557 0.0232557 7.53082 1.58607C6.20594 0.0232557 3.7519 -0.621593 1.76459 0.751556C0.710707 1.47986 0.0482673 2.70886 0.00310102 4.00615C-0.102287 6.94969 2.48725 9.30908 6.4393 12.9278L6.51458 12.9961C7.08668 13.5196 7.96743 13.5196 8.53953 12.9885L8.62234 12.9126C12.5744 9.30149 15.1564 6.94211 15.0585 3.99856C15.0134 2.70886 14.3509 1.47986 13.2971 0.751556ZM7.6061 11.7974L7.53082 11.8733L7.45554 11.7974C3.87235 8.52767 1.50864 6.36554 1.50864 4.17305C1.50864 2.65576 2.6378 1.51779 4.14335 1.51779C5.30261 1.51779 6.43177 2.26885 6.83074 3.30819H8.23842C8.62987 2.26885 9.75902 1.51779 10.9183 1.51779C12.4238 1.51779 13.553 2.65576 13.553 4.17305C13.553 6.36554 11.1893 8.52767 7.6061 11.7974Z" fill="#597CFF"/>
<path d="M7.6061 11.7974L7.53082 11.8733L7.45554 11.7974C3.87235 8.52767 1.50864 6.36554 1.50864 4.17305C1.50864 2.65576 2.6378 1.51779 4.14335 1.51779C5.30261 1.51779 6.43177 2.26885 6.83074 3.30819H8.23842C8.62987 2.26885 9.75902 1.51779 10.9183 1.51779C12.4238 1.51779 13.553 2.65576 13.553 4.17305C13.553 6.36554 11.1893 8.52767 7.6061 11.7974Z" fill="#597CFF"/>
</svg>
