<svg width="19" height="20" viewBox="0 0 19 20" fill="none" xmlns="http://www.w3.org/2000/svg">
<mask id="path-1-inside-1_239_3376" fill="white">
<path d="M2.1994 17.7332C2.1994 18.2855 2.64712 18.7332 3.1994 18.7332H5.87637C6.42866 18.7332 6.87637 18.2855 6.87637 17.7332V12.2795C6.87637 11.7272 7.32409 11.2795 7.87637 11.2795H11.7238C12.2761 11.2795 12.7239 11.7272 12.7239 12.2795V17.7332C12.7239 18.2855 13.1716 18.7332 13.7239 18.7332H16.4008C16.9531 18.7332 17.4008 18.2855 17.4008 17.7332V7.82963C17.4008 7.51629 17.254 7.22107 17.004 7.03206L10.4033 2.03972C10.0465 1.76981 9.55375 1.76981 9.19688 2.03972L2.59617 7.03206C2.34627 7.22107 2.1994 7.51629 2.1994 7.82963V17.7332ZM1.93262 20C1.38033 20 0.932617 19.5523 0.932617 19V7.1966C0.932617 6.88306 1.07967 6.58767 1.32985 6.39868L9.19734 0.455349C9.55402 0.185904 10.0462 0.185903 10.4029 0.455349L18.2704 6.39868C18.5206 6.58767 18.6676 6.88306 18.6676 7.1966V19C18.6676 19.5523 18.2199 20 17.6676 20H12.4571C11.9048 20 11.4571 19.5523 11.4571 19V13.5462C11.4571 12.994 11.0093 12.5462 10.4571 12.5462H9.14316C8.59087 12.5462 8.14316 12.994 8.14316 13.5462V19C8.14316 19.5523 7.69544 20 7.14316 20H1.93262Z"/>
<path d="M2.1994 17.7332C2.1994 18.2855 2.64712 18.7332 3.1994 18.7332H5.87637C6.42866 18.7332 6.87637 18.2855 6.87637 17.7332V12.2795C6.87637 11.7272 7.32409 11.2795 7.87637 11.2795H11.7238C12.2761 11.2795 12.7239 11.7272 12.7239 12.2795V17.7332C12.7239 18.2855 13.1716 18.7332 13.7239 18.7332H16.4008C16.9531 18.7332 17.4008 18.2855 17.4008 17.7332V7.82963C17.4008 7.51629 17.254 7.22107 17.004 7.03206L10.4033 2.03972C10.0465 1.76981 9.55375 1.76981 9.19688 2.03972L2.59617 7.03206C2.34627 7.22107 2.1994 7.51629 2.1994 7.82963V17.7332Z"/>
</mask>
<path d="M2.1994 17.7332C2.1994 18.2855 2.64712 18.7332 3.1994 18.7332H5.87637C6.42866 18.7332 6.87637 18.2855 6.87637 17.7332V12.2795C6.87637 11.7272 7.32409 11.2795 7.87637 11.2795H11.7238C12.2761 11.2795 12.7239 11.7272 12.7239 12.2795V17.7332C12.7239 18.2855 13.1716 18.7332 13.7239 18.7332H16.4008C16.9531 18.7332 17.4008 18.2855 17.4008 17.7332V7.82963C17.4008 7.51629 17.254 7.22107 17.004 7.03206L10.4033 2.03972C10.0465 1.76981 9.55375 1.76981 9.19688 2.03972L2.59617 7.03206C2.34627 7.22107 2.1994 7.51629 2.1994 7.82963V17.7332ZM1.93262 20C1.38033 20 0.932617 19.5523 0.932617 19V7.1966C0.932617 6.88306 1.07967 6.58767 1.32985 6.39868L9.19734 0.455349C9.55402 0.185904 10.0462 0.185903 10.4029 0.455349L18.2704 6.39868C18.5206 6.58767 18.6676 6.88306 18.6676 7.1966V19C18.6676 19.5523 18.2199 20 17.6676 20H12.4571C11.9048 20 11.4571 19.5523 11.4571 19V13.5462C11.4571 12.994 11.0093 12.5462 10.4571 12.5462H9.14316C8.59087 12.5462 8.14316 12.994 8.14316 13.5462V19C8.14316 19.5523 7.69544 20 7.14316 20H1.93262Z" fill="white"/>
<path d="M2.1994 17.7332C2.1994 18.2855 2.64712 18.7332 3.1994 18.7332H5.87637C6.42866 18.7332 6.87637 18.2855 6.87637 17.7332V12.2795C6.87637 11.7272 7.32409 11.2795 7.87637 11.2795H11.7238C12.2761 11.2795 12.7239 11.7272 12.7239 12.2795V17.7332C12.7239 18.2855 13.1716 18.7332 13.7239 18.7332H16.4008C16.9531 18.7332 17.4008 18.2855 17.4008 17.7332V7.82963C17.4008 7.51629 17.254 7.22107 17.004 7.03206L10.4033 2.03972C10.0465 1.76981 9.55375 1.76981 9.19688 2.03972L2.59617 7.03206C2.34627 7.22107 2.1994 7.51629 2.1994 7.82963V17.7332Z" fill="white"/>
<path d="M10.4033 2.03972L7.3872 6.02757L10.4033 2.03972ZM17.004 7.03206L20.0202 3.04422L17.004 7.03206ZM3.1994 23.7332H5.87637V13.7332H3.1994V23.7332ZM11.8764 17.7332V12.2795H1.87637V17.7332H11.8764ZM7.87637 16.2795H11.7238V6.27945H7.87637V16.2795ZM7.72385 12.2795V17.7332H17.7239V12.2795H7.72385ZM13.7239 23.7332H16.4008V13.7332H13.7239V23.7332ZM22.4008 17.7332V7.82963H12.4008V17.7332H22.4008ZM20.0202 3.04422L13.4195 -1.94812L7.3872 6.02757L13.9879 11.0199L20.0202 3.04422ZM6.18074 -1.94812L-0.419966 3.04422L5.61231 11.0199L12.213 6.02757L6.18074 -1.94812ZM-2.8006 7.82963V17.7332H7.1994V7.82963H-2.8006ZM-0.419966 3.04422C-1.91941 4.17829 -2.8006 5.94962 -2.8006 7.82963H7.1994C7.1994 9.08297 6.61194 10.2639 5.61231 11.0199L-0.419966 3.04422ZM13.4195 -1.94812C11.2783 -3.56757 8.32193 -3.56757 6.18074 -1.94812L12.213 6.02757C10.7856 7.1072 8.81466 7.1072 7.3872 6.02757L13.4195 -1.94812ZM22.4008 7.82963C22.4008 5.94961 21.5196 4.17829 20.0202 3.04422L13.9879 11.0199C12.9883 10.2639 12.4008 9.08297 12.4008 7.82963H22.4008ZM16.4008 23.7332C19.7145 23.7332 22.4008 21.0469 22.4008 17.7332H12.4008C12.4008 15.5241 14.1917 13.7332 16.4008 13.7332V23.7332ZM7.72385 17.7332C7.72385 21.0469 10.4101 23.7332 13.7239 23.7332V13.7332C15.933 13.7332 17.7239 15.5241 17.7239 17.7332H7.72385ZM11.7238 16.2795C9.51471 16.2795 7.72385 14.4886 7.72385 12.2795H17.7239C17.7239 8.96574 15.0376 6.27945 11.7238 6.27945V16.2795ZM11.8764 12.2795C11.8764 14.4886 10.0855 16.2795 7.87637 16.2795V6.27945C4.56267 6.27945 1.87637 8.96574 1.87637 12.2795H11.8764ZM5.87637 23.7332C9.19008 23.7332 11.8764 21.0469 11.8764 17.7332H1.87637C1.87637 15.5241 3.66723 13.7332 5.87637 13.7332V23.7332ZM3.1994 13.7332C5.40854 13.7332 7.1994 15.5241 7.1994 17.7332H-2.8006C-2.8006 21.0469 -0.11431 23.7332 3.1994 23.7332V13.7332ZM18.2704 6.39868L12.2427 14.3778L18.2704 6.39868ZM1.32985 6.39868L7.35753 14.3778L1.32985 6.39868ZM10.9326 19V7.1966H-9.06738V19H10.9326ZM7.35753 14.3778L15.225 8.43451L3.16966 -7.52381L-4.69784 -1.58048L7.35753 14.3778ZM4.37519 8.43451L12.2427 14.3778L24.2981 -1.58048L16.4306 -7.52381L4.37519 8.43451ZM8.66761 7.1966V19H28.6676V7.1966H8.66761ZM17.6676 10H12.4571V30H17.6676V10ZM21.4571 19V13.5462H1.45707V19H21.4571ZM10.4571 2.54624H9.14316V22.5462H10.4571V2.54624ZM-1.85684 13.5462V19H18.1432V13.5462H-1.85684ZM7.14316 10H1.93262V30H7.14316V10ZM-1.85684 19C-1.85684 14.0294 2.1726 10 7.14316 10V30C13.2183 30 18.1432 25.0751 18.1432 19H-1.85684ZM9.14316 2.54624C3.06801 2.54624 -1.85684 7.47112 -1.85684 13.5462H18.1432C18.1432 18.5168 14.1137 22.5462 9.14316 22.5462V2.54624ZM21.4571 13.5462C21.4571 7.4711 16.5322 2.54624 10.4571 2.54624V22.5462C5.48651 22.5462 1.45707 18.5168 1.45707 13.5462H21.4571ZM12.4571 10C17.4276 10 21.4571 14.0294 21.4571 19H1.45707C1.45707 25.0751 6.38194 30 12.4571 30V10ZM8.66761 19C8.66761 14.0294 12.697 10 17.6676 10V30C23.7427 30 28.6676 25.0751 28.6676 19H8.66761ZM12.2427 14.3778C9.99109 12.6769 8.66761 10.0184 8.66761 7.1966H28.6676C28.6676 3.74768 27.05 0.498419 24.2981 -1.58048L12.2427 14.3778ZM15.225 8.43451C12.0149 10.8595 7.5853 10.8595 4.37519 8.43451L16.4306 -7.52381C12.5071 -10.4877 7.09312 -10.4877 3.16966 -7.52381L15.225 8.43451ZM10.9326 7.1966C10.9326 10.0184 9.60913 12.6769 7.35753 14.3778L-4.69784 -1.58048C-7.44979 0.498419 -9.06738 3.74768 -9.06738 7.1966H10.9326ZM-9.06738 19C-9.06738 25.0751 -4.14251 30 1.93262 30V10C6.90318 10 10.9326 14.0294 10.9326 19H-9.06738Z" fill="white" mask="url(#path-1-inside-1_239_3376)"/>
</svg>
