<svg width="19" height="20" viewBox="0 0 19 20" fill="none" xmlns="http://www.w3.org/2000/svg">
<path d="M1.93262 19.5C1.65648 19.5 1.43262 19.2761 1.43262 19V7.1966C1.43262 7.03983 1.50614 6.89213 1.63123 6.79764L9.49873 0.854307C9.67707 0.719584 9.92316 0.719584 10.1015 0.854307L17.969 6.79764C18.0941 6.89213 18.1676 7.03983 18.1676 7.1966V19C18.1676 19.2761 17.9437 19.5 17.6676 19.5H12.4571C12.1809 19.5 11.9571 19.2761 11.9571 19V13.5462C11.9571 12.7178 11.2855 12.0462 10.4571 12.0462H9.14316C8.31473 12.0462 7.64316 12.7178 7.64316 13.5462V19C7.64316 19.2761 7.4193 19.5 7.14316 19.5H1.93262ZM2.29456 6.63328L2.59617 7.03206L2.29456 6.63328C1.9197 6.91679 1.6994 7.35962 1.6994 7.82963V17.7332C1.6994 18.5616 2.37097 19.2332 3.1994 19.2332H5.87637C6.7048 19.2332 7.37637 18.5616 7.37637 17.7332V12.2795C7.37637 12.0033 7.60023 11.7795 7.87637 11.7795H11.7238C12 11.7795 12.2239 12.0033 12.2239 12.2795V17.7332C12.2239 18.5616 12.8954 19.2332 13.7239 19.2332H16.4008C17.2292 19.2332 17.9008 18.5616 17.9008 17.7332V7.82963C17.9008 7.35962 17.6805 6.91679 17.3057 6.63328L10.705 1.64094C10.1697 1.23608 9.43057 1.23608 8.89527 1.64094L2.29456 6.63328Z" fill="white" stroke="white"/>
</svg>
