<svg width="38" height="44" viewBox="0 0 38 44" fill="none" xmlns="http://www.w3.org/2000/svg">
<path d="M13.8332 33.3334H24.1665C25.5873 33.3334 26.7498 32.1709 26.7498 30.75V17.8334H30.8573C33.1565 17.8334 34.319 15.0434 32.6915 13.4159L20.834 1.55836C19.8265 0.550859 18.199 0.550859 17.1915 1.55836L5.334 13.4159C3.7065 15.0434 4.84317 17.8334 7.14234 17.8334H11.2498V30.75C11.2498 32.1709 12.4123 33.3334 13.8332 33.3334ZM3.49984 38.5H34.4998C35.9207 38.5 37.0832 39.6625 37.0832 41.0834C37.0832 42.5042 35.9207 43.6667 34.4998 43.6667H3.49984C2.079 43.6667 0.916504 42.5042 0.916504 41.0834C0.916504 39.6625 2.079 38.5 3.49984 38.5Z" fill="white"/>
</svg>
