<svg width="100" height="100" viewBox="0 0 22 22" fill="none" xmlns="http://www.w3.org/2000/svg">
<path d="M11.2002 1C5.6772 1 1.2002 5.477 1.2002 11C1.2002 16.523 5.6772 21 11.2002 21C16.7232 21 21.2002 16.523 21.2002 11C21.2002 5.477 16.7232 1 11.2002 1Z" stroke="white" stroke-width="1.5" stroke-linecap="round" stroke-linejoin="round"/>
<path d="M3.47168 17.346C3.47168 17.346 5.70068 14.5 11.2007 14.5C16.7007 14.5 18.9307 17.346 18.9307 17.346M11.2007 11C11.9963 11 12.7594 10.6839 13.322 10.1213C13.8846 9.55871 14.2007 8.79565 14.2007 8C14.2007 7.20435 13.8846 6.44129 13.322 5.87868C12.7594 5.31607 11.9963 5 11.2007 5C10.405 5 9.64197 5.31607 9.07936 5.87868C8.51675 6.44129 8.20068 7.20435 8.20068 8C8.20068 8.79565 8.51675 9.55871 9.07936 10.1213C9.64197 10.6839 10.405 11 11.2007 11Z" stroke="white" stroke-width="1.5" stroke-linecap="round" stroke-linejoin="round"/>
</svg>
