<svg width="20" height="20" viewBox="0 0 20 20" fill="none" xmlns="http://www.w3.org/2000/svg">
<path fill-rule="evenodd" clip-rule="evenodd" d="M6.161 0.579983C6.42159 0.450029 6.7088 0.382385 7 0.382385C7.2912 0.382385 7.57841 0.450029 7.839 0.579983L12.832 3.07798C12.938 3.12998 13.062 3.12998 13.168 3.07798L17.037 1.14298C17.3228 1.00017 17.6404 0.932783 17.9596 0.947207C18.2788 0.961631 18.5891 1.05739 18.8609 1.2254C19.1327 1.3934 19.357 1.62808 19.5126 1.90716C19.6682 2.18624 19.7499 2.50045 19.75 2.81998V15.305C19.75 16.015 19.349 16.665 18.713 16.982L13.838 19.419C13.5777 19.5486 13.2908 19.6161 13 19.6161C12.7092 19.6161 12.4223 19.5486 12.162 19.419L7.168 16.922C7.11574 16.8962 7.05826 16.8828 7 16.8828C6.94174 16.8828 6.88426 16.8962 6.832 16.922L2.964 18.857C2.67812 19 2.36042 19.0676 2.04107 19.0533C1.72173 19.039 1.41134 18.9433 1.1394 18.7752C0.86746 18.6072 0.642996 18.3724 0.487331 18.0932C0.331665 17.814 0.249968 17.4997 0.25 17.18V4.69498C0.25 3.98498 0.651 3.33498 1.286 3.01798L6.161 0.579983ZM7 3.99998C7.19891 3.99998 7.38968 4.079 7.53033 4.21965C7.67098 4.3603 7.75 4.55107 7.75 4.74998V13C7.75 13.1989 7.67098 13.3897 7.53033 13.5303C7.38968 13.671 7.19891 13.75 7 13.75C6.80109 13.75 6.61032 13.671 6.46967 13.5303C6.32902 13.3897 6.25 13.1989 6.25 13V4.74998C6.25 4.55107 6.32902 4.3603 6.46967 4.21965C6.61032 4.079 6.80109 3.99998 7 3.99998ZM13.75 6.99998C13.75 6.80107 13.671 6.61031 13.5303 6.46965C13.3897 6.329 13.1989 6.24998 13 6.24998C12.8011 6.24998 12.6103 6.329 12.4697 6.46965C12.329 6.61031 12.25 6.80107 12.25 6.99998V15.25C12.25 15.4489 12.329 15.6397 12.4697 15.7803C12.6103 15.921 12.8011 16 13 16C13.1989 16 13.3897 15.921 13.5303 15.7803C13.671 15.6397 13.75 15.4489 13.75 15.25V6.99998Z" fill="#0062FF"/>
</svg>
