<svg width="10" height="10" viewBox="0 0 10 10" fill="none" xmlns="http://www.w3.org/2000/svg">
<path d="M5 5.33032C5.59674 5.33032 6.16903 5.09327 6.59099 4.67131C7.01295 4.24936 7.25 3.67706 7.25 3.08032C7.25 2.48359 7.01295 1.91129 6.59099 1.48933C6.16903 1.06738 5.59674 0.830322 5 0.830322C4.40326 0.830322 3.83097 1.06738 3.40901 1.48933C2.98705 1.91129 2.75 2.48359 2.75 3.08032C2.75 3.67706 2.98705 4.24936 3.40901 4.67131C3.83097 5.09327 4.40326 5.33032 5 5.33032ZM6.5 3.08032C6.5 3.47815 6.34196 3.85968 6.06066 4.14098C5.77936 4.42229 5.39782 4.58032 5 4.58032C4.60218 4.58032 4.22064 4.42229 3.93934 4.14098C3.65804 3.85968 3.5 3.47815 3.5 3.08032C3.5 2.6825 3.65804 2.30097 3.93934 2.01966C4.22064 1.73836 4.60218 1.58032 5 1.58032C5.39782 1.58032 5.77936 1.73836 6.06066 2.01966C6.34196 2.30097 6.5 2.6825 6.5 3.08032ZM9.5 9.08032C9.5 9.83032 8.75 9.83032 8.75 9.83032H1.25C1.25 9.83032 0.5 9.83032 0.5 9.08032C0.5 8.33032 1.25 6.08032 5 6.08032C8.75 6.08032 9.5 8.33032 9.5 9.08032ZM8.75 9.07732C8.74925 8.89282 8.6345 8.33782 8.126 7.82932C7.637 7.34032 6.71675 6.83032 5 6.83032C3.28325 6.83032 2.363 7.34032 1.874 7.82932C1.3655 8.33782 1.2515 8.89282 1.25 9.07732H8.75Z" fill="black"/>
</svg>
