<svg width="22" height="22" viewBox="0 0 22 22" fill="none" xmlns="http://www.w3.org/2000/svg">
<path d="M11.2002 1C5.6772 1 1.2002 5.477 1.2002 11C1.2002 16.523 5.6772 21 11.2002 21C16.7232 21 21.2002 16.523 21.2002 11C21.2002 5.477 16.7232 1 11.2002 1Z" fill="white" stroke="white" stroke-width="1.5" stroke-linecap="round" stroke-linejoin="round"/>
<path d="M3 17.9999C3 17.9999 5.45119 15.0031 11.4995 15.0031C17.5477 15.0031 20 17.9999 20 17.9999M11.4995 11.3177C12.3744 11.3177 13.2135 10.9849 13.8322 10.3925C14.4509 9.80008 14.7985 8.99659 14.7985 8.1588C14.7985 7.321 14.4509 6.51752 13.8322 5.9251C13.2135 5.33269 12.3744 4.99988 11.4995 4.99988C10.6245 4.99988 9.78536 5.33269 9.16667 5.9251C8.54798 6.51752 8.2004 7.321 8.2004 8.1588C8.2004 8.99659 8.54798 9.80008 9.16667 10.3925C9.78536 10.9849 10.6245 11.3177 11.4995 11.3177Z" stroke="#3D3D3D" stroke-width="1.5" stroke-linecap="square" stroke-linejoin="round"/>
</svg>
