<svg width="20" height="24" viewBox="0 0 20 24" fill="none" xmlns="http://www.w3.org/2000/svg">
<path fill-rule="evenodd" clip-rule="evenodd" d="M0 10.4623C0.00163145 7.81121 1.05592 5.26925 2.93111 3.39522C4.80629 1.52118 7.3489 0.46846 10 0.46846C15.5215 0.46846 20 4.94384 20 10.4623C20 14.5762 17.9415 17.8362 15.7354 20.0392C14.7587 21.0171 13.666 21.8717 12.4815 22.5838C11.9862 22.8762 11.5231 23.1069 11.12 23.2638C10.74 23.4146 10.3415 23.5315 10 23.5315C9.65846 23.5315 9.26 23.4146 8.88 23.2638C8.40954 23.0721 7.95438 22.8448 7.51846 22.5838C6.33401 21.8717 5.24126 21.0171 4.26462 20.0392C2.05846 17.8362 0 14.5762 0 10.4623ZM10 6.61769C8.97994 6.61769 8.00165 7.02291 7.28036 7.7442C6.55906 8.4655 6.15385 9.44378 6.15385 10.4638C6.15385 11.4839 6.55906 12.4622 7.28036 13.1835C8.00165 13.9048 8.97994 14.31 10 14.31C11.0201 14.31 11.9983 13.9048 12.7196 13.1835C13.4409 12.4622 13.8462 11.4839 13.8462 10.4638C13.8462 9.44378 13.4409 8.4655 12.7196 7.7442C11.9983 7.02291 11.0201 6.61769 10 6.61769Z" fill="white"/>
</svg>
