<svg width="100" height="100" viewBox="0 0 10 12" fill="none" xmlns="http://www.w3.org/2000/svg">
<path fill-rule="evenodd" clip-rule="evenodd" d="M4.99994 4.30032C4.34548 4.30032 3.81494 4.83087 3.81494 5.48532C3.81494 6.13978 4.34548 6.67032 4.99994 6.67032C5.6544 6.67032 6.18494 6.13978 6.18494 5.48532C6.18494 4.83087 5.6544 4.30032 4.99994 4.30032ZM3.06494 5.48532C3.06494 4.41665 3.93127 3.55032 4.99994 3.55032C6.06861 3.55032 6.93494 4.41665 6.93494 5.48532C6.93494 6.55399 6.06861 7.42032 4.99994 7.42032C3.93127 7.42032 3.06494 6.55399 3.06494 5.48532Z" fill="#3D3D3D"/>
<path fill-rule="evenodd" clip-rule="evenodd" d="M5.00148 1.70532C3.29311 1.70417 1.62218 2.69548 1.17557 4.65828C0.647037 6.99338 2.0939 9.0184 3.45495 10.3302C4.3202 11.1608 5.6802 11.1598 6.53943 10.3305L6.54012 10.3298C7.90609 9.01811 9.35268 6.99804 8.82411 4.66312L8.82411 4.6631C8.37984 2.70018 6.70995 1.70648 5.00148 1.70532ZM9.5556 4.49753C9.01986 2.13046 6.99226 0.956669 5.00198 0.955323C3.01167 0.953978 0.982662 2.12509 0.444199 4.49214L0.444112 4.49253C-0.17724 7.23728 1.53575 9.52214 2.93463 10.8703L2.9351 10.8708C4.0898 11.9798 5.90942 11.9807 7.06008 10.8703C8.46402 9.522 10.177 7.24229 9.5556 4.49753Z" fill="#3D3D3D"/>
</svg>
