<svg width="100" height="100" viewBox="0 0 12 12" fill="none" xmlns="http://www.w3.org/2000/svg">
<path fill-rule="evenodd" clip-rule="evenodd" d="M7.37857 1.64082C7.81764 1.20176 8.41314 0.955093 9.03407 0.955093C9.655 0.955093 10.2505 1.20176 10.6896 1.64082C11.1286 2.07989 11.3753 2.67539 11.3753 3.29632C11.3753 3.91726 11.1286 4.51276 10.6896 4.95182L5.94657 9.69482C5.67557 9.96582 5.51657 10.1248 5.33857 10.2633C5.12924 10.4273 4.90424 10.5665 4.66357 10.6808C4.46057 10.7773 4.24657 10.8488 3.88357 10.9698L2.21757 11.5248L1.81657 11.6588C1.65708 11.7121 1.48592 11.7198 1.32227 11.6812C1.15862 11.6426 1.00896 11.5592 0.890068 11.4403C0.771177 11.3214 0.687757 11.1718 0.649163 11.0081C0.61057 10.8445 0.618328 10.6733 0.67157 10.5138L1.36057 8.44732C1.48157 8.08382 1.55307 7.86982 1.64957 7.66632C1.76424 7.42632 1.9034 7.20132 2.06707 6.99132C2.20507 6.81432 2.36457 6.65482 2.63557 6.38382L7.37857 1.64082ZM2.20007 10.7408L3.62057 10.2668C4.01607 10.1348 4.18407 10.0783 4.34057 10.0038C4.53124 9.91249 4.71007 9.80199 4.87707 9.67232C5.01357 9.56532 5.13957 9.44082 5.43457 9.14582L9.21957 5.36082C8.70062 5.17693 8.22955 4.87895 7.84107 4.48882C7.45131 4.10024 7.15367 3.62918 6.97007 3.11032L3.18507 6.89532C2.89007 7.18982 2.76507 7.31532 2.65857 7.45232C2.52857 7.61899 2.41807 7.79782 2.32707 7.98882C2.25257 8.14532 2.19607 8.31332 2.06407 8.70882L1.59007 10.1303L2.20007 10.7408ZM7.57757 2.50182C7.59507 2.58932 7.62357 2.70832 7.67207 2.84682C7.81834 3.26535 8.05769 3.64522 8.37207 3.95782C8.68453 4.27214 9.06422 4.51148 9.48257 4.65782C9.62157 4.70632 9.74057 4.73482 9.82807 4.75232L10.1591 4.42132C10.4557 4.1226 10.6219 3.71847 10.6211 3.29748C10.6204 2.87648 10.4528 2.47294 10.1551 2.17525C9.85745 1.87757 9.45391 1.71 9.03292 1.70926C8.61192 1.70853 8.2078 1.87468 7.90907 2.17132L7.57757 2.50182Z" fill="#3D3D3D"/>
</svg>
