<svg width="21" height="16" viewBox="0 0 21 16" fill="none" xmlns="http://www.w3.org/2000/svg">
<path fill-rule="evenodd" clip-rule="evenodd" d="M7.32143 0.428293C7.45633 0.248435 7.66803 0.142578 7.89286 0.142578H13.6071C13.832 0.142578 14.0437 0.248435 14.1786 0.428293L16.1071 2.99972H18.6071C19.1754 2.99972 19.7206 3.22549 20.1224 3.62735C20.5243 4.02921 20.75 4.57425 20.75 5.14258V13.714C20.75 14.2823 20.5243 14.8274 20.1224 15.2293C19.7206 15.6312 19.1754 15.8569 18.6071 15.8569H2.89286C2.32453 15.8569 1.77949 15.6312 1.37763 15.2293C0.975764 14.8274 0.75 14.2823 0.75 13.714V5.14258C0.75 4.57426 0.975764 4.02921 1.37763 3.62735C1.77949 3.22549 2.32453 2.99972 2.89286 2.99972H5.39286L7.32143 0.428293ZM14.2662 9.01589C14.2662 10.9578 12.6919 12.532 10.75 12.532C8.80806 12.532 7.23381 10.9578 7.23381 9.01589C7.23381 7.07396 8.80806 5.49972 10.75 5.49972C12.6919 5.49972 14.2662 7.07396 14.2662 9.01589Z" fill="#CFCED3"/>
</svg>
