<svg width="100%" height="100" viewBox="0 0 22 20" fill="none" xmlns="http://www.w3.org/2000/svg">
<path d="M11.2497 16.755L6.17425 19.8125C5.95003 19.9551 5.71563 20.0163 5.47103 19.9959C5.22643 19.9755 5.01241 19.894 4.82896 19.7513C4.64551 19.6086 4.50283 19.4305 4.40091 19.2169C4.29899 19.0032 4.27861 18.7635 4.33976 18.4977L5.68505 12.7191L1.19056 8.83611C0.986726 8.65266 0.859535 8.44353 0.808985 8.20872C0.758435 7.9739 0.773518 7.7448 0.854236 7.5214C0.934953 7.298 1.05725 7.11455 1.22113 6.97105C1.38501 6.82755 1.60923 6.73583 1.89378 6.69588L7.82529 6.17611L10.1184 0.733795C10.2203 0.489197 10.3785 0.305748 10.5929 0.183449C10.8073 0.0611494 11.0263 0 11.2497 0C11.4731 0 11.692 0.0611494 11.9064 0.183449C12.1208 0.305748 12.279 0.489197 12.3809 0.733795L14.674 6.17611L20.6055 6.69588C20.8909 6.73664 21.1151 6.82837 21.2782 6.97105C21.4413 7.11373 21.5636 7.29718 21.6451 7.5214C21.7266 7.74561 21.7421 7.97513 21.6916 8.20994C21.641 8.44476 21.5134 8.65348 21.3088 8.83611L16.8143 12.7191L18.1596 18.4977C18.2207 18.7627 18.2003 19.0024 18.0984 19.2169C17.9965 19.4313 17.8538 19.6094 17.6704 19.7513C17.4869 19.8932 17.2729 19.9747 17.0283 19.9959C16.7837 20.0171 16.5493 19.956 16.3251 19.8125L11.2497 16.755Z" fill="#3D3D3D"/>
</svg>
