<svg width="19" height="19" viewBox="0 0 19 19" fill="none" xmlns="http://www.w3.org/2000/svg">
<path d="M9.49575 12.2016C10.9034 12.2016 12.0445 10.992 12.0445 9.5C12.0445 8.00796 10.9034 6.79841 9.49575 6.79841C8.08813 6.79841 6.94703 8.00796 6.94703 9.5C6.94703 10.992 8.08813 12.2016 9.49575 12.2016Z" stroke="#3D3D3D" stroke-width="1.5" stroke-miterlimit="10" stroke-linecap="round" stroke-linejoin="round"/>
<path d="M1 10.2925V8.70753C1 7.77099 1.72214 6.99653 2.61419 6.99653C4.15192 6.99653 4.78061 5.84385 4.0075 4.43002C3.56572 3.61955 3.82909 2.56593 4.6022 2.09766L6.07196 1.20613C6.74313 0.782884 7.6097 1.03503 8.009 1.74645L8.10245 1.91755C8.86707 3.33138 10.1244 3.33138 10.8976 1.91755L10.991 1.74645C11.3903 1.03503 12.2569 0.782884 12.928 1.20613L14.3978 2.09766C15.1709 2.56593 15.4343 3.61955 14.9925 4.43002C14.2194 5.84385 14.8481 6.99653 16.3858 6.99653C17.2694 6.99653 18 7.76198 18 8.70753V10.2925C18 11.229 17.2779 12.0035 16.3858 12.0035C14.8481 12.0035 14.2194 13.1561 14.9925 14.57C15.4343 15.3895 15.1709 16.4341 14.3978 16.9023L12.928 17.7939C12.2569 18.2171 11.3903 17.965 10.991 17.2536L10.8976 17.0825C10.1329 15.6686 8.87556 15.6686 8.10245 17.0825L8.009 17.2536C7.6097 17.965 6.74313 18.2171 6.07196 17.7939L4.6022 16.9023C3.82909 16.4341 3.56572 15.3805 4.0075 14.57C4.78061 13.1561 4.15192 12.0035 2.61419 12.0035C1.72214 12.0035 1 11.229 1 10.2925Z" stroke="#3D3D3D" stroke-width="1.5" stroke-miterlimit="10" stroke-linecap="round" stroke-linejoin="round"/>
</svg>
