<svg width="100%" height="100%" viewBox="0 0 25 24" fill="none" xmlns="http://www.w3.org/2000/svg">
<path d="M12.4994 20.0028L6.44014 23.6529C6.17246 23.8233 5.89261 23.8963 5.6006 23.872C5.30859 23.8476 5.05308 23.7503 4.83407 23.5799C4.61506 23.4096 4.44472 23.1969 4.32305 22.9419C4.20138 22.6869 4.17704 22.4007 4.25005 22.0834L5.85611 15.1846L0.490398 10.5489C0.247055 10.3299 0.0952091 10.0802 0.0348601 9.79991C-0.025489 9.51958 -0.00748172 9.24606 0.0888821 8.97936C0.185246 8.71266 0.331252 8.49364 0.5269 8.32233C0.722547 8.15102 0.990225 8.04151 1.32993 7.99382L8.41121 7.37329L11.1488 0.876035C11.2705 0.584023 11.4593 0.365014 11.7153 0.219009C11.9713 0.0730027 12.2327 0 12.4994 0C12.7661 0 13.0274 0.0730027 13.2834 0.219009C13.5394 0.365014 13.7283 0.584023 13.8499 0.876035L16.5875 7.37329L23.6688 7.99382C24.0095 8.04249 24.2772 8.15199 24.4719 8.32233C24.6665 8.49267 24.8125 8.71168 24.9099 8.97936C25.0072 9.24704 25.0257 9.52104 24.9654 9.80137C24.905 10.0817 24.7527 10.3309 24.5084 10.5489L19.1426 15.1846L20.7487 22.0834C20.8217 22.3997 20.7974 22.6859 20.6757 22.9419C20.554 23.1979 20.3837 23.4106 20.1647 23.5799C19.9457 23.7493 19.6902 23.8466 19.3982 23.872C19.1061 23.8973 18.8263 23.8243 18.5586 23.6529L12.4994 20.0028Z" fill="#F7D95F"/>
</svg>
