<svg width="100" height="100" viewBox="0 0 12 12" fill="none" xmlns="http://www.w3.org/2000/svg">
<path d="M6.25771 9.17305L5.9997 9.01763L5.7417 9.17305L2.83326 10.9251L2.83318 10.925L2.82283 10.9316C2.77843 10.9598 2.75188 10.9621 2.72981 10.9603C2.6806 10.9562 2.65149 10.9425 2.62732 10.9237C2.58476 10.8906 2.55188 10.8504 2.52634 10.7968L2.52617 10.7965C2.52341 10.7907 2.51387 10.7709 2.52718 10.7126C2.52721 10.7125 2.52725 10.7123 2.52729 10.7121L3.29791 7.40198L3.36641 7.10775L3.13781 6.91026L0.566833 4.68907C0.519309 4.64547 0.509236 4.61592 0.505534 4.59873C0.496061 4.55472 0.498884 4.51882 0.51291 4.48C0.533085 4.42416 0.557691 4.39244 0.582297 4.37089C0.582991 4.37028 0.608825 4.34767 0.696753 4.33383L4.08103 4.03727L4.38117 4.01097L4.49815 3.73333L5.8122 0.614641L5.81221 0.614643L5.81297 0.612805C5.83217 0.566747 5.85154 0.55059 5.87107 0.539449C5.92661 0.507775 5.96745 0.5 5.9997 0.5C6.03195 0.5 6.0728 0.507775 6.12833 0.539449C6.14787 0.55059 6.16724 0.566747 6.18643 0.612805L6.18643 0.612806L6.1872 0.614641L7.50125 3.73333L7.61824 4.01097L7.91837 4.03727L11.302 4.33378C11.3912 4.34808 11.4171 4.3709 11.4172 4.37101C11.441 4.39178 11.466 4.42352 11.4868 4.48096C11.5012 4.5204 11.5039 4.55619 11.4946 4.59943C11.491 4.61587 11.4813 4.64491 11.4335 4.68826L8.86159 6.91026L8.63299 7.10775L8.70149 7.40198L9.47219 10.7125C9.47223 10.7127 9.47228 10.7128 9.47232 10.713C9.48552 10.7707 9.47602 10.7906 9.47286 10.7973L9.47275 10.7975C9.44722 10.8512 9.41469 10.8907 9.37317 10.9228C9.3485 10.9419 9.31839 10.956 9.26794 10.9604C9.2471 10.9622 9.22158 10.9604 9.17766 10.9323L9.17776 10.9321L9.16614 10.9251L6.25771 9.17305Z" stroke="#F7D95F"/>
</svg>
