<svg width="100" height="100" viewBox="0 0 13 13" fill="none" xmlns="http://www.w3.org/2000/svg">
<path d="M3.83366 11.7272L6.49973 10.0456L9.16579 11.7272C9.28357 11.8061 9.4067 11.8397 9.53519 11.8281C9.66367 11.8164 9.7761 11.7716 9.87246 11.6935C9.96883 11.6155 10.0438 11.5175 10.0973 11.3996C10.1508 11.2817 10.1616 11.1498 10.1294 11.0041L9.42276 7.82583L11.7837 5.69018C11.8912 5.58974 11.9582 5.47494 11.9848 5.34579C12.0113 5.21664 12.0032 5.09041 11.9603 4.96709C11.9175 4.84377 11.8533 4.74288 11.7676 4.6644C11.682 4.58592 11.5642 4.53548 11.4143 4.51306L8.29852 4.22718L7.09397 1.23391C7.04044 1.09938 6.95735 0.998483 6.84471 0.931219C6.73207 0.863954 6.61708 0.830322 6.49973 0.830322C6.38238 0.830322 6.26738 0.863954 6.15474 0.931219C6.04211 0.998483 5.95902 1.09938 5.90548 1.23391L4.70093 4.22718L1.58517 4.51306C1.4357 4.53503 1.31792 4.58548 1.23184 4.6644C1.14575 4.74332 1.08151 4.84422 1.03911 4.96709C0.996708 5.08996 0.988785 5.21597 1.01534 5.34512C1.04189 5.47426 1.1087 5.58929 1.21578 5.69018L3.57669 7.82583L2.87002 11.0041C2.8379 11.1503 2.84861 11.2821 2.90214 11.3996C2.95568 11.5171 3.03063 11.6151 3.12699 11.6935C3.22336 11.772 3.33578 11.8169 3.46427 11.8281C3.59275 11.8393 3.71588 11.8056 3.83366 11.7272Z" stroke="#3D3D3D"/>
</svg>
