<svg width="20" height="20" viewBox="0 0 20 20" fill="none" xmlns="http://www.w3.org/2000/svg">
<path d="M10 0C4.48615 0 0 4.48615 0 10C0 15.5138 4.48615 20 10 20C15.5138 20 20 15.5138 20 10C20 4.48615 15.5138 0 10 0ZM10 1.53846C14.6823 1.53846 18.4615 5.31769 18.4615 10C18.4615 14.6823 14.6823 18.4615 10 18.4615C5.31769 18.4615 1.53846 14.6823 1.53846 10C1.53846 5.31769 5.31769 1.53846 10 1.53846ZM9.73077 5.38462C9.45463 5.38462 9.23077 5.60847 9.23077 5.88462V8.73077C9.23077 9.00691 9.00691 9.23077 8.73077 9.23077H5.88462C5.60847 9.23077 5.38462 9.45463 5.38462 9.73077V10.2692C5.38462 10.5454 5.60847 10.7692 5.88462 10.7692H8.73077C9.00691 10.7692 9.23077 10.9931 9.23077 11.2692V14.1154C9.23077 14.3915 9.45463 14.6154 9.73077 14.6154H10.2692C10.5454 14.6154 10.7692 14.3915 10.7692 14.1154V11.2692C10.7692 10.9931 10.9931 10.7692 11.2692 10.7692H14.1154C14.3915 10.7692 14.6154 10.5454 14.6154 10.2692V9.73077C14.6154 9.45463 14.3915 9.23077 14.1154 9.23077H11.2692C10.9931 9.23077 10.7692 9.00691 10.7692 8.73077V5.88462C10.7692 5.60847 10.5454 5.38462 10.2692 5.38462H9.73077Z" fill="white"/>
</svg>
