<svg width="100" height="80" viewBox="0 0 100 80" fill="none" xmlns="http://www.w3.org/2000/svg">
<g opacity="0.2">
<path d="M16.8698 30.8547C15.6969 25.847 21.0912 21.9789 25.1828 24.8982L35.0742 31.9495C35.6772 32.3801 36.3582 32.679 37.0758 32.8282C37.7933 32.9773 38.5326 32.9736 39.2488 32.8172C39.9649 32.6607 40.643 32.3549 41.242 31.9181C41.8409 31.4814 42.3483 30.9229 42.7332 30.2765L49.4572 18.9586C49.9414 18.1437 50.6182 17.471 51.4233 17.0044C52.2284 16.5378 53.135 16.2928 54.0569 16.2928C54.9789 16.2928 55.8855 16.5378 56.6906 17.0044C57.4957 17.471 58.1725 18.1437 58.6567 18.9586L65.3807 30.2765C65.7656 30.9229 66.2729 31.4814 66.8719 31.9181C67.4709 32.3549 68.149 32.6607 68.8651 32.8172C69.5813 32.9736 70.3205 32.9773 71.0381 32.8282C71.7557 32.679 72.4367 32.3801 73.0397 31.9495L82.931 24.8982C87.0227 21.9789 92.417 25.847 91.2441 30.8491L83.677 63.0849C83.3901 64.3061 82.717 65.392 81.7654 66.1686C80.8138 66.9453 79.6388 67.3678 78.4286 67.3684H29.6799C28.4697 67.3678 27.2946 66.9453 26.343 66.1686C25.3915 65.392 24.7183 64.3061 24.4315 63.0849L16.8698 30.8547Z" fill="black"/>
<path fill-rule="evenodd" clip-rule="evenodd" d="M77.4341 42.2849C73.8033 44.2361 69.597 44.6909 65.6572 43.5583C61.7173 42.4257 58.3347 39.7893 56.1866 36.1768L54.0569 32.5951L51.9273 36.1768C49.7793 39.7879 46.3976 42.4233 42.4591 43.5558C38.5205 44.6883 34.3154 44.2344 30.6852 42.2849L33.9283 56.1403H74.1802L77.4341 42.2849ZM25.1828 24.8982C21.0912 21.9789 15.6969 25.847 16.8698 30.8491L24.4369 63.0849C24.7235 64.3052 25.3958 65.3903 26.3463 66.1669C27.2968 66.9434 28.4706 67.3665 29.6799 67.3684H78.4232C79.6334 67.3678 80.8084 66.9453 81.76 66.1686C82.7116 65.392 83.3847 64.3061 83.6716 63.0849L91.2387 30.8547C92.4116 25.847 87.0173 21.9789 82.9256 24.8982L73.0343 31.9495C72.4313 32.3801 71.7503 32.679 71.0327 32.8282C70.3151 32.9773 69.5759 32.9736 68.8597 32.8172C68.1436 32.6607 67.4655 32.3549 66.8665 31.9181C66.2675 31.4814 65.7602 30.9229 65.3752 30.2765L58.6513 18.9586C58.1671 18.1437 57.4903 17.471 56.6852 17.0044C55.8801 16.5378 54.9735 16.2928 54.0515 16.2928C53.1296 16.2928 52.223 16.5378 51.4179 17.0044C50.6128 17.471 49.936 18.1437 49.4518 18.9586L42.7332 30.2765C42.3483 30.9229 41.8409 31.4814 41.242 31.9181C40.643 32.3549 39.9649 32.6607 39.2488 32.8172C38.5326 32.9736 37.7933 32.9773 37.0758 32.8282C36.3582 32.679 35.6772 32.3801 35.0742 31.9495L25.1828 24.8982Z" fill="black"/>
<path d="M59.4616 5.61404C59.4616 7.10297 58.8921 8.53092 57.8785 9.58376C56.8648 10.6366 55.49 11.2281 54.0565 11.2281C52.623 11.2281 51.2481 10.6366 50.2345 9.58376C49.2208 8.53092 48.6514 7.10297 48.6514 5.61404C48.6514 4.1251 49.2208 2.69715 50.2345 1.64431C51.2481 0.591477 52.623 0 54.0565 0C55.49 0 56.8648 0.591477 57.8785 1.64431C58.8921 2.69715 59.4616 4.1251 59.4616 5.61404ZM99.9999 16.8421C99.9999 18.331 99.4305 19.759 98.4168 20.8118C97.4032 21.8647 96.0284 22.4561 94.5948 22.4561C93.1613 22.4561 91.7865 21.8647 90.7728 20.8118C89.7592 19.759 89.1897 18.331 89.1897 16.8421C89.1897 15.3532 89.7592 13.9252 90.7728 12.8724C91.7865 11.8195 93.1613 11.2281 94.5948 11.2281C96.0284 11.2281 97.4032 11.8195 98.4168 12.8724C99.4305 13.9252 99.9999 15.3532 99.9999 16.8421Z" fill="black"/>
<path fill-rule="evenodd" clip-rule="evenodd" d="M25.6797 75.7894C25.6797 74.6727 26.1068 73.6017 26.867 72.8121C27.6273 72.0225 28.6584 71.5789 29.7335 71.5789H76.958C78.0331 71.5789 79.0642 72.0225 79.8245 72.8121C80.5847 73.6017 81.0118 74.6727 81.0118 75.7894C81.0118 76.9061 80.5847 77.9771 79.8245 78.7667C79.0642 79.5563 78.0331 79.9999 76.958 79.9999H29.7335C28.6584 79.9999 27.6273 79.5563 26.867 78.7667C26.1068 77.9771 25.6797 76.9061 25.6797 75.7894Z" fill="black"/>
<path d="M18.923 16.8421C18.923 18.331 18.3536 19.7589 17.3399 20.8118C16.3262 21.8646 14.9514 22.4561 13.5179 22.4561C12.0844 22.4561 10.7096 21.8646 9.69591 20.8118C8.68226 19.7589 8.11279 18.331 8.11279 16.8421C8.11279 15.3531 8.68226 13.9252 9.69591 12.8723C10.7096 11.8195 12.0844 11.228 13.5179 11.228C14.9514 11.228 16.3262 11.8195 17.3399 12.8723C18.3536 13.9252 18.923 15.3531 18.923 16.8421Z" fill="black"/>
</g>
<path fill-rule="evenodd" clip-rule="evenodd" d="M72.4134 60.7326L80.6021 28.3621L68.6352 36.2779C66.2489 37.8581 63.3612 38.4034 60.5922 37.7967C57.8231 37.19 55.3935 35.4797 53.8252 33.033L45.9499 20.7438L38.0693 33.0386C36.5001 35.4844 34.0701 37.1936 31.3011 37.7992C28.5321 38.4049 25.6448 37.8587 23.2593 36.2779L11.3031 28.3621L19.4919 60.7326H72.4134ZM14.2003 23.6238C10.0546 20.8786 4.81701 24.8477 6.06559 29.788L14.2597 62.1586C14.5631 63.3583 15.2405 64.42 16.1861 65.1776C17.1316 65.9353 18.2922 66.3464 19.4865 66.3466H72.4134C73.6076 66.3464 74.7682 65.9353 75.7138 65.1776C76.6594 64.42 77.3368 63.3583 77.6401 62.1586L85.8343 29.788C87.0774 24.8477 81.8453 20.8842 77.6996 23.6238L65.7326 31.5396C64.5402 32.3303 63.0968 32.6038 61.7123 32.3015C60.3278 31.9992 59.1127 31.1452 58.3276 29.9228L50.447 17.628C49.9534 16.8592 49.2846 16.2287 48.5002 15.7927C47.7157 15.3567 46.8397 15.1285 45.9499 15.1285C45.0602 15.1285 44.1842 15.3567 43.3997 15.7927C42.6152 16.2287 41.9465 16.8592 41.4529 17.628L33.5722 29.9228C32.788 31.1461 31.5732 32.0013 30.1887 32.3047C28.8042 32.608 27.3603 32.3354 26.1672 31.5452L14.2003 23.6238Z" fill="black"/>
<path d="M51.0513 5.30539C51.0527 6.71243 50.516 8.06244 49.5591 9.05842C48.6022 10.0544 47.3036 10.6148 45.9489 10.6163C44.5942 10.6178 43.2944 10.0602 42.3355 9.06636C41.3766 8.07248 40.8371 6.72366 40.8356 5.31662C40.8342 3.90957 41.371 2.55957 42.3279 1.56359C43.2848 0.567604 44.5834 0.00722921 45.9381 0.00574028C47.2927 0.00425134 48.5925 0.561769 49.5514 1.55565C50.5103 2.54952 51.0499 3.89835 51.0513 5.30539ZM91.8923 15.9215C91.8931 17.3286 91.3556 18.6783 90.3982 19.6737C89.4408 20.6692 88.1419 21.2289 86.7872 21.2296C85.4325 21.2303 84.1331 20.6721 83.1746 19.6777C82.2162 18.6833 81.6774 17.3342 81.6767 15.9271C81.6767 14.5201 82.2148 13.1707 83.1727 12.1758C84.1306 11.1808 85.4298 10.6219 86.7845 10.6219C88.1392 10.6219 89.4384 11.1808 90.3963 12.1758C91.3542 13.1707 91.8923 14.5145 91.8923 15.9215ZM10.2157 15.9215C10.216 16.6182 10.0843 17.3082 9.82789 17.952C9.57152 18.5958 9.19558 19.1808 8.72153 19.6737C8.24747 20.1666 7.68459 20.5577 7.06501 20.8247C6.44544 21.0916 5.78131 21.2292 5.11054 21.2296C4.43976 21.23 3.77549 21.0931 3.15565 20.8268C2.5358 20.5606 1.97252 20.1701 1.49796 19.6777C1.0234 19.1853 0.646865 18.6007 0.389845 17.9572C0.132824 17.3136 0.000354895 16.6238 0 15.9271C0 14.5201 0.538146 13.1707 1.49605 12.1758C2.45395 11.1808 3.75315 10.6219 5.10783 10.6219C6.46251 10.6219 7.76171 11.1808 8.71962 12.1758C9.67752 13.1707 10.2157 14.5145 10.2157 15.9215Z" fill="black"/>
<path fill-rule="evenodd" clip-rule="evenodd" d="M20.2744 72.9826C20.2744 72.2381 20.5591 71.5241 21.066 70.9977C21.5728 70.4713 22.2602 70.1755 22.977 70.1755H70.2015C70.9182 70.1755 71.6056 70.4713 72.1124 70.9977C72.6193 71.5241 72.904 72.2381 72.904 72.9826C72.904 73.727 72.6193 74.441 72.1124 74.9674C71.6056 75.4938 70.9182 75.7896 70.2015 75.7896H22.977C22.2602 75.7896 21.5728 75.4938 21.066 74.9674C20.5591 74.441 20.2744 73.727 20.2744 72.9826Z" fill="black"/>
</svg>
